<?xml version="1.0" encoding="utf-8"?>
<!-- Generator: Adobe Illustrator 27.2.0, SVG Export Plug-In . SVG Version: 6.00 Build 0)  -->
<svg version="1.1" id="Layer_1" xmlns="http://www.w3.org/2000/svg" xmlns:xlink="http://www.w3.org/1999/xlink" x="0px" y="0px" viewBox="0 0 2400 1216" style="enable-background:new 0 0 2400 1216;" xml:space="preserve">
<style type="text/css">
	.st0{fill:#F1B983;}
	.st1{fill:#8C8B85;}
	.st2{fill:#E8E6E8;}
	.st3{fill:#D3D3D3;}
	.st4{fill:#6F6A67;}
	.st5{fill:#675F4C;}
	.st6{fill:#493636;}
	.st7{fill:#614C4B;}
	.st8{fill:#EAEAEA;}
	.st9{fill:#C68C58;}
	.st10{opacity:0.14;}
	.st11{fill:#F5F3F5;}
	.st12{fill:#7F7B79;}
	.st13{fill:#D69E66;}
	.st14{fill:#2B100E;}
	.st15{fill:#AF3535;}
	.st16{fill:#FFFFFF;}
	.st17{fill:#280D05;}
	.st18{fill:#C48A57;}
	.st19{fill:#562520;}
	.st20{fill:#6E342C;}
	.st21{opacity:5.000000e-02;fill:#FFFFFF;}
	.st22{fill:#A96644;}
	.st23{fill:#5E1C18;}
	.st24{fill:#B2573F;}
	.st25{fill:#742A21;}
	.st26{fill:#566F9B;}
	.st27{fill:#445C90;}
	.st28{fill:#D8BEAF;}
	.st29{fill:#8DA6C9;}
	.st30{fill:#E3CDBF;}
	.st31{fill:#EDE0D9;}
	.st32{fill:#7A361E;}
	.st33{opacity:0.2;}
	.st34{fill:#914627;}
	.st35{fill:#5B4845;}
	.st36{fill:#423736;}
	.st37{opacity:0.19;}
	.st38{opacity:0;fill:#FFFFFF;}
	.st39{opacity:3.225806e-02;fill:#FEFAFA;}
	.st40{opacity:6.451613e-02;fill:#FDF6F5;}
	.st41{opacity:9.677419e-02;fill:#FCF1EF;}
	.st42{opacity:0.129;fill:#FBEDEA;}
	.st43{opacity:0.1613;fill:#FAE8E5;}
	.st44{opacity:0.1935;fill:#F8E4E0;}
	.st45{opacity:0.2258;fill:#F7DFDB;}
	.st46{opacity:0.2581;fill:#F6DBD5;}
	.st47{opacity:0.2903;fill:#F5D6D0;}
	.st48{opacity:0.3226;fill:#F4D2CB;}
	.st49{opacity:0.3548;fill:#F3CDC6;}
	.st50{opacity:0.3871;fill:#F2C8C1;}
	.st51{opacity:0.4194;fill:#F1C4BB;}
	.st52{opacity:0.4516;fill:#F0BFB6;}
	.st53{opacity:0.4839;fill:#EFBBB1;}
	.st54{opacity:0.5161;fill:#EDB6AC;}
	.st55{opacity:0.5484;fill:#ECB2A7;}
	.st56{opacity:0.5806;fill:#EBADA2;}
	.st57{opacity:0.6129;fill:#EAA99C;}
	.st58{opacity:0.6452;fill:#E9A497;}
	.st59{opacity:0.6774;fill:#E89F92;}
	.st60{opacity:0.7097;fill:#E79B8D;}
	.st61{opacity:0.7419;fill:#E69688;}
	.st62{opacity:0.7742;fill:#E59282;}
	.st63{opacity:0.8065;fill:#E48D7D;}
	.st64{opacity:0.8387;fill:#E28978;}
	.st65{opacity:0.871;fill:#E18473;}
	.st66{opacity:0.9032;fill:#E0806E;}
	.st67{opacity:0.9355;fill:#DF7B68;}
	.st68{opacity:0.9677;fill:#DE7763;}
	.st69{fill:#DD725E;}
	.st70{fill:#722626;}
</style>
<g id="Layer_1_00000049183052308640958350000013211061629994459582_">
	<g>
		<g>
			<g>
				<g>
					<g>
						<g>
							<g>
								<path class="st0" d="M398.8,178.9c-1.6-1.5-3-4.7-14,7.5l8.8-16c0,0-0.1,0-0.4-0.1l2.2-16.2l-25.2-19.7l-11.1,0.9l-1.2,6.1
									c0,0-1,0.3-2.1,1.3c-1.1,1-2.8,2.5-4.4,4.3c-1.6,1.8-4.2,0.1-5.7,0.9c-1.5,0.8-6.7,0.4-11.4,2.3c-1.2,0.5-2.6,4-3.9,7.5
									l-2-3.7c-3.4,10.2-20.5,37.6-20.5,37.6s1.4,2,3.1,4.1c5.4,6.7-0.6,10.8,6.1,16.8c3.5,3.1,10-0.5,15.7-0.2
									c9.1,0.5,18.7-0.4,27.9-3.6c9.5-3.3,16.9-8.7,23.8-15.8C385.9,191.7,399.8,179.9,398.8,178.9z"/>
							</g>
						</g>
					</g>
					<g>
						<path class="st1" d="M330.5,159.5c-3.1,2-3.2,5.8-1.4,8.6l21.1,31.8c1.9,2.8,6,5.1,9,3l64.6-42.8c3.1-2,3.2-7.1,1.3-9.9
							l-21.1-31.8c-1.9-2.8-5.9-3.7-9-1.7L330.5,159.5z"/>
						
							<rect x="345.7" y="135.3" transform="matrix(0.8337 -0.5523 0.5523 0.8337 -25.029 235.7941)" class="st2" width="66.5" height="48.2"/>
						<path class="st3" d="M409.8,133.5c0.5-0.3,1.1-0.2,1.4,0.3l5.4,8.1c0.3,0.5,0.2,1.1-0.3,1.4l-0.5,0.3
							c-0.5,0.3-1.1,0.2-1.4-0.3l-5.4-8.1c-0.3-0.5-0.2-1.1,0.3-1.4L409.8,133.5z"/>
					</g>
					<g>
						<path class="st0" d="M346.9,167.3c3.9-1.3,2.8-5.7,2.8-5.7l-2.5-13.7l3.2,11.6c0,0,1.1,3.3,5.4,2.5c4.4-0.8,3.7-5.6,3.7-5.6
							l-1.5-14.2l0.9-4.4c0,0,1.2,4.4,5.5,4.8c4.3,0.4,5.8-4.8,5.8-4.8l0-1.1c0,0,0.4-6.6-4.8-6.8c-5.6-0.2-6.3,5-6.3,5l-1.2,6.8
							c0,0-1.3-3.5-5.5-2.8c-6.1,1-5.3,8.5-5.3,8.5s-2.1-3.5-6.1-2.4c-4,1.1-4.8,4.6-4.8,4.6l4.8,14.5
							C341,164.1,342.3,168.8,346.9,167.3z"/>
						<path class="st0" d="M328,154.8c0.7-2.2,2-4.8,3.7-5.6c1.9-0.9,4.5,0.4,4.5,0.4l3.8,17.4c0,0,1.2,4.5-3.1,5.2
							c-4.3,0.7-5-3.2-5-3.2l-3.3-12.8L328,154.8z"/>
					</g>
				</g>
			</g>
			<path class="st4" d="M163,302.7c-0.5-2.3-0.7-4.7-0.6-7.1c0.1-1.8,0.3-3.6,0.8-5.3c3-12.1,14.2-20.8,26.7-20.7l0.2,0
				c123.4-6.2,176.8-8.4,178.9-8.4l0.2,0c13.7,0.6,25.5,10.5,28.5,23.9c0.6,2.7,0.9,5.4,0.7,8.2c-0.1,2-0.4,4-0.9,6
				c-3.4,14.1-16.5,23.9-30.9,23.4l-178.6,1.2l-0.1,0C176,323.1,165.7,314.4,163,302.7z"/>
			<path class="st4" d="M329.9,215l-2.1,2c-68.8,63.7-114.4,96.3-122,101l-0.1,0.1l-0.1,0.1c-9,6.8-21.6,7.2-31.3,1
				c-2.4-1.5-4.5-3.4-6.3-5.6c-9.4-11.3-7.9-28.4,3.3-37.9l0.1-0.1l0.8-0.6l0.2-0.2c30.7-29.9,110.6-77.7,135.8-90.8l3.1-1.6
				L329.9,215z"/>
		</g>
		<g>
			
				<rect x="323.3" y="1077.6" transform="matrix(0.1618 -0.9868 0.9868 0.1618 -794.4009 1263.2524)" class="st0" width="46.3" height="43.4"/>
			<path class="st5" d="M336.7,1105c-9.6-1.6-18-4.6-25.1-9l-3.9-2.4l0.5-4.5c2.1-19,17.9-189.6,19.8-199.9
				c3.5-21.1,23.5-35.5,44.7-32c18.5,3,35.5,20.5,32.1,44.6l-26.6,201.8l-5.2,0.9C360.1,1106.6,347.9,1106.8,336.7,1105
				C336.7,1105,336.7,1105,336.7,1105z"/>
			<path class="st5" d="M360.6,934.1c-18.5-2.8-35.8-20.1-32.7-44.1c0.7-6.2,27.8-254.3,28-255.8c3.4-22.8,24.8-38.5,47.5-35
				c22.7,3.4,38.4,24.7,35,47.5l-33.4,253.5c-1.2,10.5-6.5,19.8-14.8,26.2C381.8,932.8,370.9,935.6,360.6,934.1z"/>
		</g>
		<g>
			<path class="st0" d="M316.9,1122.8c0,0,5.5-8.4,26.8-8.4s23.5,8.8,23.5,8.8v10.4h-50.1L316.9,1122.8z"/>
			<g>
				<rect x="234.4" y="1166.2" class="st6" width="143.6" height="10.8"/>
				<path class="st7" d="M235.1,1166.2c0,0-6.7-25.9,41-21.9l40.5-28.6c0,0,3.2-2.8,6.2,0c3,2.8,13.6,12.9,26.6,11.2
					c13-1.7,13.3-9.7,17.9-9c4.6,0.6,12.1,21.3,10.9,48.3H235.1z"/>
			</g>
		</g>
		<g>
			<polygon class="st0" points="528.8,1124.1 489.5,1122.8 490.8,1080.9 530.1,1082.2 			"/>
			<path class="st5" d="M500.5,1111.5c-8.7-0.5-16.7-2.4-23.7-5.5l-4.1-1.9l-0.1-4.5c-0.4-19.1-6.7-193.3-6.2-203.7
				c0.7-21.4,18.7-38.3,40.1-37.6c0.4,0,0.7,0,1.1,0.1c20.7,1.3,36.8,18.8,36.6,39.9l-0.3,206.5l-5,1.5
				C525.5,1110.4,512.3,1112.2,500.5,1111.5C500.5,1111.5,500.5,1111.5,500.5,1111.5z"/>
			<path class="st5" d="M503.7,936c-18.2-0.8-37.1-15.8-37.2-39.3c-0.2-6.3-6.2-255.9-6.2-257.4c0.2-11.1,4.7-21.5,12.7-29.3
				c8-7.7,18.6-11.9,29.7-11.7c0.4,0,0.8,0,1.2,0c22.7,1,40.2,19.6,39.8,42.3l0.6,255.8c0.2,10.6-3.8,20.5-11.2,27.9
				c-7.6,7.6-17.9,11.8-28.4,11.7C504.4,936,504,936,503.7,936z"/>
		</g>
		<g>
			<path class="st0" d="M481.6,1122.8c0,0,5.5-8.4,26.8-8.4c21.3,0,23.5,8.8,23.5,8.8v10.4h-50.1L481.6,1122.8z"/>
			<g>
				<rect x="426.2" y="1166.2" class="st6" width="117.9" height="10.8"/>
				<path class="st7" d="M426.2,1166.2c0,0-2.5-21.9,25.1-22.5l33.4-29.3c0,0,6-4.6,13.9,0c5.9,3.4,6.7,13.2,17.4,11.4
					c10.7-1.7,11-9.8,14.7-9.1c3.8,0.7,14.4,19.8,13.3,49.6H426.2z"/>
			</g>
		</g>
		<g>
			<polygon class="st8" points="488.8,225.2 427.6,225.7 427.1,232.5 452,262.4 463.2,260.7 486.9,232.6 			"/>
			<g>
				<rect x="432" y="195.2" class="st0" width="52.1" height="63"/>
				<path class="st9" d="M484.1,221.3v-26H432v40.6C440,237,470.3,239,484.1,221.3z"/>
			</g>
			<g>
				<g>
					<g>
						<path class="st5" d="M544.1,566.8H354.9l0.7,66.9c0.5,24.3,20.3,44,44.5,44.8l99.3,0.7c24.7-0.7,44.6-21.3,44.6-46.2
							C544.1,631.7,544.1,566.8,544.1,566.8z"/>
					</g>
				</g>
			</g>
			<path class="st10" d="M438.8,618.6l7.2-22l13.6,26.4c0,0,2,9.2,18.4,10.3c9.7,0.6,41.6,0.5,66,0.3c0-0.2,0-0.4,0-0.5
				c0-1.4,0-66.3,0-66.3H354.9l0.7,66.5h66.8C422.5,633.3,435,630.5,438.8,618.6z"/>
			<path class="st4" d="M575.6,327.1c-2.9,24.2-20.7,68.1-26.1,113.1c-4.3,36.1,3.4,78.8,4.3,105.2c2.2,39.9,4.9,46.6,1.9,74.4
				c-0.4,3.4-34,6.1-79,3.1c-14-4.5-22.5-23-29.6-37.4c0-0.1-0.1-0.1-0.1-0.2c-0.6-1.3-1.2-2.5-1.9-3.7c-0.6,1.2-1.2,2.4-1.9,3.7
				c0,0.1-0.1,0.1-0.1,0.2c-7.2,14.4-11.1,33-22.7,37.4c-45,3-71.8,0.3-72.1-3.1c-2.6-23.7,1.7-70.3,1.9-74.4
				c0.9-26.3,6.7-68.8,2.6-104.8c-0.7-5.6-1.4-11.6-2.4-18.1c-6.4-43.6-9.4-75.9-10.7-99.3c-21-13.8-20.8-23.8-20.8-23.8
				c1.9-22.2,21.3-28.7,21.3-28.7c18.5-8.6,65.4-19.6,83.9-22.5c0,0,8,11.2,18.4,31.7l49.6-31.7c40.7,8.9,90.2,22.6,90.2,22.6
				s18.8,3.3,24.7,24.6C607.1,295.5,612.8,311.5,575.6,327.1z"/>
			<polygon class="st11" points="415.9,249.2 408.3,251.1 446.1,421.8 505.5,250.6 495.7,247.5 453,258.2 			"/>
			<polygon class="st10" points="477.3,284.6 502.4,249.6 495.9,247.5 453,258.2 416.9,249 412.8,250 433.3,285.8 453,262.8 			"/>
			<path class="st12" d="M412.2,250c0,0,16.4,82.5,34.3,168.6l56-169.2l28.7,7.7l-6.3,74.7l-22.5,1.3l17.5,23.1l-73.3,90.4l-55.1-86
				l20.2-20.6l-25.3-3.7l-5.8-78.9L412.2,250z"/>
			<g>
				<polygon class="st11" points="500.2,248.8 488.8,225.2 453,258.2 474.4,277.8 				"/>
				<polygon class="st11" points="453,258.2 435.5,278.9 415.3,249.4 427.6,225.7 				"/>
			</g>
			<g>
				<circle class="st12" cx="463.2" cy="462.5" r="8"/>
				
					<ellipse transform="matrix(0.2298 -0.9732 0.9732 0.2298 -129.3577 835.5276)" class="st12" cx="463.2" cy="499.5" rx="8" ry="8"/>
				
					<ellipse transform="matrix(0.7071 -0.7071 0.7071 0.7071 -243.7133 484.6675)" class="st12" cx="463.2" cy="536.5" rx="8" ry="8"/>
			</g>
			<path class="st12" d="M448.9,442.2L447,585.4c-0.6-1.3-1.2-2.5-1.9-3.7c-0.6,1.2-1.2,2.4-1.9,3.7c0,0.1-0.1,0.1-0.1,0.2
				l1.9-143.4H448.9z"/>
		</g>
		<g>
			<g>
				<path class="st0" d="M507.3,124v48.5c0,30.2-24.8,54.7-55.4,54.7c-15.3,0-29.1-6.1-39.2-16c-10-9.9-16.2-23.6-16.2-38.7V124
					c0-29.7,24-53.9,53.9-54.7c0.2,0,0.5,0,0.7,0h0.7c0.7,0,1.5,0,2.2,0.1c0.7,0,1.4,0.1,2,0.1c0.5,0,0.9,0.1,1.4,0.1
					c0.4,0,0.8,0.1,1.2,0.1c12.5,1.5,23.8,7.2,32.3,15.6c7.5,7.4,12.8,16.9,15.1,27.5C506.9,116.5,507.3,120.2,507.3,124z"/>
				<path class="st13" d="M506.1,112.9c-2.2-10.6-7.6-20.1-15.1-27.5c-8.5-8.4-19.7-14.1-32.3-15.6c-0.4-0.1-0.8-0.1-1.2-0.1
					c-0.5,0-0.9-0.1-1.4-0.1c-0.7-0.1-1.3-0.1-2-0.1c-0.7,0-1.5-0.1-2.2-0.1h-0.7c-0.2,0-0.5,0-0.7,0c-29.3,0.7-52.9,23.9-53.9,52.8
					c1.9-0.7,3.8-1.9,5.1-4.2c3.6-6.1,8.3-14.3,16.3-11.1c8,3.2,29.9,14.3,53.1,1.2c23.2-13,26,6.4,26,6.4s3.7,7.5,10.1,10.8V124
					C507.3,120.2,506.9,116.5,506.1,112.9z"/>
				<path class="st13" d="M500.3,97.5c3.3,7,5.2,14.8,5.2,23v48.5c0,30.2-24.8,54.7-55.4,54.7c-20.8,0-39-11.4-48.4-28.2
					c8.8,18.7,27.9,31.7,50.2,31.7c30.6,0,55.4-24.5,55.4-54.7V124C507.3,114.4,504.7,105.4,500.3,97.5z"/>
			</g>
			<g>
				<path class="st0" d="M511,141.9c0,0-6.7,1.5-9,20.3c-2.3,18.8,2.4,20.4,3.8,21.1c0,0,17.1,4.8,23-23.5
					C533.7,136.3,511,141.9,511,141.9z"/>
				<path class="st13" d="M506.3,170.2c0,0,12.4-6.2,2.7-12.5c0,0,3.3-14.2,11.6-11c8.3,3.2,1.7,16.6,0,19.3
					C517.1,171.8,506.3,178.9,506.3,170.2z"/>
			</g>
			<g>
				<path class="st14" d="M423,155.5c0,3.8-2.5,5.6-5.5,5.6s-5.5-1.8-5.5-5.6c0-3.8,2.5-6.9,5.5-6.9S423,151.6,423,155.5z"/>
				<path class="st14" d="M480.6,155.5c0,3.8-2.5,5.6-5.5,5.6c-3,0-5.5-1.8-5.5-5.6c0-3.8,2.5-6.9,5.5-6.9
					C478.1,148.6,480.6,151.6,480.6,155.5z"/>
				<g>
					<path class="st15" d="M431,192.3H464c0,0,3.3-0.1,0.9,4.9c-1.5,3.2-5.5,9.8-16.8,10.1c-13.5,0.4-18.1-10.4-18.1-10.4
						S427.7,192.3,431,192.3z"/>
					<path class="st16" d="M465.4,195.8c1.1-3.6-1.5-3.5-1.5-3.5H431c-2.5,0-1.9,2.6-1.4,3.9C436,197.9,448.9,199.9,465.4,195.8z"/>
				</g>
				<g>
					<path class="st17" d="M484.1,142c-0.2,0-0.4,0-0.5-0.1c-2.5-0.8-5.1-1.2-7.7-1.2c-2.6,0-5.2,0.4-7.6,1.2
						c-0.2,0.1-0.4,0.1-0.5,0.1c-0.8,0-1.4-0.5-1.7-1.2c-0.3-0.9,0.2-1.9,1.1-2.2c2.8-0.9,5.8-1.4,8.7-1.4c3,0,5.9,0.5,8.7,1.4
						c0.4,0.1,0.8,0.5,1,0.9c0.2,0.4,0.2,0.9,0.1,1.3C485.5,141.6,484.9,142,484.1,142L484.1,142z"/>
				</g>
				<g>
					<path class="st17" d="M425.4,142c-0.2,0-0.4,0-0.5-0.1c-2.5-0.8-5-1.2-7.6-1.2c-2.6,0-5.2,0.4-7.6,1.2
						c-0.2,0.1-0.4,0.1-0.5,0.1c-0.8,0-1.4-0.5-1.7-1.2c-0.1-0.4-0.1-0.9,0.1-1.3c0.2-0.4,0.6-0.7,1-0.9c2.8-0.9,5.8-1.4,8.7-1.4
						c3,0,5.9,0.5,8.7,1.4c0.9,0.3,1.4,1.3,1.1,2.2C426.8,141.6,426.2,142,425.4,142L425.4,142z"/>
				</g>
				<g>
					<g>
						<g>
							<path class="st18" d="M447.4,179.3c-11.3,4.6-17.4-0.7-17.8-6.1c-0.3-3.5,1.7-6.6,5-7.9c6.9-2.7,11.7-13.3,11.8-13.4l0,0
								c0,2.4-2.4,11.6-11.2,16.7c-1.9,1.1-3.1,2.3-2.9,4C432.5,175.6,436.8,180.1,447.4,179.3L447.4,179.3z"/>
						</g>
					</g>
				</g>
			</g>
			<g>
				<path class="st19" d="M391,104.6c1.1-15.9,16.7-18.2,13.5-11.1c-5.2,11.6-8.1,63.4-8.1,63.4s-1.1-13.8-2.3-21.5
					C394.1,134.9,390.5,112.2,391,104.6z"/>
				<path class="st19" d="M514.8,104.7C513.7,88.8,486.9,88,492,93.9c11.6,13.3,9.6,63.1,9.6,63.1s2.4-11.4,9.1-14.9
					C511.1,141.8,515.3,112.3,514.8,104.7z"/>
				<path class="st20" d="M391,115.5c0.8,2.2,1.2,4.6,5.8,4.2c3.7-0.3,2.4-3.9,5.1-7.9c4.1-5.9,7.6-11.2,18.6-7.4
					c11.7,4.1,29.4,11.3,48-0.4c18.6-11.7,29.2,2.7,29.2,2.7s4.4,6.3,15,10.7c1.1,0.5,2.4-0.7,2.5-1.9l1.2-12.6c0,0,0-15.5-13.5-14
					c0,0,4.3-24.3-18.6-34.5c-23.2-10.4-37.7-8.9-56.5-4.2c0,0-19.7-1.1-16.8,3.2c2.9,4.2,2.2,2.8,2.2,2.8s-8.5,0.7-13.9,3.7
					c-2.9,1.6-9.2,7.4-1.5,9.7c0,0-11.2,1.6-8.7,6.9c0.6,1.4,3.1,3,2.2,5.1C387.3,90.9,384.4,98.1,391,115.5z"/>
				<path class="st19" d="M502.7,90c0,0-0.2,10.9-8,11.8C494.7,101.8,501.7,95.6,502.7,90z"/>
				<path class="st21" d="M395.5,80.1c0,0,15.1-1.3,23.1,20.8c0,0,8.8-0.3,11.6,2C430.2,102.9,418.3,70.4,395.5,80.1z"/>
				<path class="st21" d="M432.3,103.1c0,0-12.8-27.8-28.3-29.8c0,0,22.5-5.9,36,25.5l2.2,6.6C442.2,105.4,437.5,102.7,432.3,103.1z
					"/>
			</g>
		</g>
		<g>
			<g>
				<path class="st0" d="M574.2,560.3c-4.8-12.4-11.4-10.2-11.4-10.2l-9.6,0.8c-8.5-3.9-13.2-10.4-17.5-11.6
					c-7.8-2.1-10.7-9.6-12.3-8.9c-3.5,1.5-4.2,4.8-2.6,7.7c2.4,4.2,7.8,8,7.8,8c-3.4-1.1-17.6-4.8-22.6-5.3
					c-4.3-0.4-16.5,7.5-18,8.4c-1.8,1.1-4.4,3-3.5,4.7c1.6,2.9,5.1,2.7,7.7,1.9c2.9-1,9.5-6,11.9-5.5c1.4,0.3,10.1,2.6,10.8,2.8
					c0,0-10.5,4.5-15,6.3c-5.2,2.1-16.1,7-16.1,7c-8.5,5.8,2.4,8.8,2.4,8.8c-0.6,0.6-2.7,2.6-2,4.2c1.4,3.1,5.9,2.9,7,2.8
					c3.5-0.3,14-4.1,14.3-4.1c0,0,15.5-0.1,15.5-0.1c-4.5,3.8-7.2,5.9-12.8,10.1c-0.9,0.7-7,4.8-7.4,5.7c-0.5,1.2,0,2.2,1.1,2.7
					c2.2,1,4.9,0.8,7.3-0.1c1.2-0.4,5.8-2.8,8.3-4.4c9.8-6.2,15.4-8.3,24.8-1.9c13.6,9.1,27.4-11.1,27.4-11.1S579,572.7,574.2,560.3
					z"/>
				<path class="st13" d="M528.6,546.3l7.2,2.3C535.7,548.6,536.5,546.9,528.6,546.3z"/>
				<path class="st13" d="M486.4,575.4c0,0,14.3-5.6,17.6-6.6c3.3-1,19.6-1.3,18.1-4.8C522.1,563.9,517,559.8,486.4,575.4z"/>
				<path class="st13" d="M515,553.3c0,0,8.1-1.5,6.1-2.2C519.2,550.3,516.6,552.6,515,553.3z"/>
			</g>
			<path class="st4" d="M688.1,470.9c-11.6,4.2-25-0.2-31.8-10.6l-0.1-0.2c-73.2-98.4-104.4-141.3-105.6-143l-0.1-0.2
				c-8.7-14.3-4-33.1,10.4-41.9c1.7-1,3.5-1.9,5.4-2.6c13.5-4.9,28.8,0.4,36.4,12.6l99.4,146.7l0.1,0.1c7.4,12.7,3.2,29.1-9.3,36.7
				C691.4,469.6,689.8,470.3,688.1,470.9z"/>
			<path class="st4" d="M551.6,548.4l1.8-2.2c59.2-72.7,99.7-111.4,106.6-117.1l0.1-0.1l0.1-0.1c10.2-10.2,27.2-10.6,37.9-0.8
				c10.9,9.9,11.8,27,2.1,38l-0.1,0.1l-0.2,0.2l-0.5,0.5l-0.1,0.2c-26.2,34-98.6,92.5-121.7,109l-2.8,2L551.6,548.4z"/>
		</g>
	</g>
	<g>
		<g>
			<g>
				<g>
					<path class="st22" d="M2087.8,1092.8l28.8-22.4c-6.4-9.9-24.2-35.6-32.6-49.5l-34.3,27.3
						C2060.4,1060.2,2079.8,1083.5,2087.8,1092.8z"/>
					<path class="st23" d="M1960,857.4c0,0-1-0.7-1.4-1.1c-11.2-10.7-28.8-12-41.5-2.4c-14.2,10.7-17.1,30.9-6.4,45.1
						c1.1,1.5,5.5,5.9,6.4,6.7c18,15.4,85,88.6,132.6,142.4l34.3-27.3c-11.5-18.9-21.2-35.8-25.5-44
						C2009.4,885.5,1962.4,859.7,1960,857.4z"/>
					<path class="st24" d="M2040.8,1037.4c0,0-2.6,3.1,2,7.1c4.6,4,5.6,9,9,9.3c3.4,0.3,23-7.9,36.6-29.2c0,0,1.6-3.7-5.2-9.2
						c-2.8-2.3-2.1-7.9-7.5-8.4C2075.7,1007,2064.5,1027.7,2040.8,1037.4z"/>
				</g>
				<path class="st25" d="M1968,877.7c0-0.1,0-1.3,0-1.3c7.4-76.9,16.9-256.9,16.9-257.1c2.5-28-18.1-52.8-46.1-55.3
					c-28-2.5-52.5,17.7-55,45.7c0,0.3,0,0.8,0,0.8c2.9,82.8,7.8,146.4,19.8,269.4l0.1,1.1c1.2,15.4,13.3,28.3,29.2,29.7
					c17.7,1.6,33.4-11.4,35-29.1C1968.1,880.4,1968.1,879.1,1968,877.7z"/>
			</g>
			<g>
				<path class="st25" d="M2038.4,879.3c0-0.1,0.2-1.2,0.2-1.2c18.4-75.1,53.5-251.8,53.6-252.1c6.5-27.3-10.4-54.8-37.7-61.3
					c-27.3-6.5-54.9,11.3-61.4,38.6c-0.1,0.3-0.3,1.7-0.3,1.7h0c-8.8,80.5-12.8,145-18.6,268.5l0,0.6c-1,15.4,9.2,29.6,24.7,33.3
					c17.3,4.1,34.7-6.6,38.8-23.9C2038,882.1,2038.2,880.7,2038.4,879.3z"/>
				<g>
					<path class="st25" d="M2038.5,879.9c0,0-0.1-1.2,0-1.8c1.1-15.4-9.1-29.8-24.7-33.5c-17.3-4.1-34.7,6.6-38.8,23.9
						c-0.4,1.8-1,8-1,9.2c-0.4,24-14.9,125.7-26.2,196.5l43.5,6.7c7.2-21.1,14.4-40.3,18-49C2048.5,935.8,2038.4,883.2,2038.5,879.9
						z"/>
					<path class="st22" d="M1938.8,1130.2l36.4,6.5c3.5-11,11.1-41.7,16.2-55.7l-43.5-6.7
						C1945.3,1090.1,1940.8,1118.6,1938.8,1130.2z"/>
					<path class="st24" d="M1950.1,1059.4c0,0-4,0-4.2,6.1c-0.1,6.1-3.2,10.1-1.3,12.9c2,2.8,20.8,12.5,45.9,9.2
						c0,0,3.9-1.1,3.7-9.9c-0.1-3.6,4.7-6.7,1.6-11.2C1995.9,1066.5,1972.8,1071.3,1950.1,1059.4z"/>
				</g>
			</g>
			<g>
				<path class="st22" d="M1931.6,1134.6c0,0,5.2-8,25.3-8c20,0,22.1,8.1,22.1,8.1v10.5h-47.2L1931.6,1134.6z"/>
				<g>
					<path class="st26" d="M1982.1,1184.7h-120.6c-3.9,0-7-3.1-7-7v-3.2h134.7v3.2C1989.1,1181.5,1986,1184.7,1982.1,1184.7z"/>
					<path class="st27" d="M1854.8,1174.4c0,0-6.3-24,38.5-20.3l38-26.7c0,0,3-2.5,5.8,0c2.8,2.6,12.8,12.1,24.9,10.5
						c12.2-1.6,12.5-9.3,16.8-8.7c4.3,0.6,11.4,20.2,10.2,45.1H1854.8z"/>
				</g>
			</g>
			<g>
				<path class="st22" d="M2085.2,1099.1c0,0-0.4-9.6,15.8-21.2c16.3-11.7,22.7-6.3,22.7-6.3l6.1,8.4l-38.3,27.5L2085.2,1099.1z"/>
				<g>
					<path class="st26" d="M2155.6,1110.1l-98.3,70.6c-3.1,2.2-7.3,1.5-9.5-1.6l-2-2.8l109.4-78.6l2,2.8
						C2159.4,1103.6,2158.7,1107.9,2155.6,1110.1z"/>
					<path class="st27" d="M2046.1,1176.1c0,0-19.1-15.8,19.4-38.9l15.3-43.8c0,0,1-3.8,4.7-3.3c3.8,0.5,17.4,2.4,26.4-6
						c9-8.4,4.7-14.9,8.5-16.9c3.8-2,21,9.8,34.6,30.7L2046.1,1176.1z"/>
				</g>
			</g>
		</g>
		<path class="st28" d="M1747,327c-0.9-2.1-1.4-4.3-1.7-6.6c-1.6-13.6,8.1-26.1,21.7-28c35.9-7.7,152.3-32.6,154.5-32.8
			c13-1.5,25.5,5.9,30.5,18c1,2.4,1.6,5,1.9,7.6c1.9,16-9.6,30.5-25.5,32.4l-155.2,25.1l-0.1,0C1761.9,343.8,1751.2,337.4,1747,327
			C1747,327,1747,327,1747,327z"/>
		<g>
			<g>
				<path class="st22" d="M1879.2,207.3c0,0-29.4,13.8-22.6-18.7c0,0,6.7-22.2,21.8-38.4c15.1-16.2,31.4-28,37.6-30.1
					c6.2-2.1,8.7,2.8,8.1,8.5c0,0-3.7,42.8-2.3,46.6c1.5,3.8,23.8,3.3,29.3,9.1c5.5,5.7-3.8,7.1-8.7,7.4c-2.6,0.2-20.6,3.7-37,13.7
					C1889.1,215.4,1879.2,207.3,1879.2,207.3z"/>
				<g>
					<path class="st27" d="M1895.9,217.7c-1.9,1.3-4.5,0.9-5.8-1l-30-42.1c-1.3-1.9-0.9-4.5,1-5.8l85-60.6c1.9-1.3,4.5-0.9,5.8,1
						l30,42.1c1.3,1.9,0.9,4.5-1,5.8L1895.9,217.7z"/>
					<path class="st29" d="M1903.8,208.6c-1.9,1.3-4.5,0.9-5.8-1l-26.6-37.3c-1.3-1.9-0.9-4.5,1-5.8l69.5-49.6
						c1.9-1.3,4.5-0.9,5.8,1l26.6,37.3c1.3,1.9,0.9,4.5-1,5.8L1903.8,208.6z"/>
				</g>
			</g>
			<g>
				<path class="st22" d="M1752.8,304.9c-6.7,9.4-4.7,22.5,4.7,29.4c9.3,6.9,22.9,4.9,30-4.3l0,0c0,0,27.1-25.9,91.3-124.1
					l-21.8-16.1c0,0-75.2,68.2-103.1,113.6C1753.7,303.8,1752.8,304.9,1752.8,304.9z"/>
				<g>
					<path class="st30" d="M1750.4,301.2c-0.2,0.3-0.8,1.1-0.9,1.1l-0.2,0.2c-8,11.2-5.5,26.9,5.6,35.1c1.8,1.3,3.8,2.4,5.9,3.2
						c10.6,4.1,22.7,0.8,29.6-8c1.4-1.4,7.9-11,21.2-28.2l-38.5-30.9C1765.6,283.1,1755.9,292.2,1750.4,301.2z"/>
				</g>
				<path class="st31" d="M1806.3,311.8c0,0-17.9-17.6-39.9-30.8c0,0,0.6-5.4,3.4-7.3c2.7-1.9,5.5-11.3,9.5-10.4
					c0,0,27.4,15.1,39.7,31.5c0,0,0.6,4.2-4.2,8.3C1809.9,307,1809,312.6,1806.3,311.8z"/>
			</g>
		</g>
		<g>
			<g>
				<g>
					<path class="st25" d="M2094.5,609.1c0.2-2.7,0.3-9.3-0.4-13.2c-0.3-1.6-0.5-3.3-0.8-4.9c-10.6-58.1-41.1-108.5-41.1-108.5
						l-128.9,0.7c0,0-34.4,39.6-39.8,107.2c-0.4,2.6,0,14.2,0,14.2c0.8,25.9,20.1,45.9,45,48.5c0,0,116.1,0.1,116.1,0.1
						C2072.2,652.3,2094.2,636.7,2094.5,609.1z"/>
				</g>
			</g>
			<g>
				<g>
					<path class="st24" d="M1989.2,586.1c-0.8-0.1-1.4-0.7-1.6-1.5c0-0.4-4.6-37.7-1.2-87.9c0.1-1,0.9-1.7,1.8-1.6
						c0.9,0.1,1.7,0.9,1.6,1.8c-3.4,49.8,1.1,86.8,1.1,87.2c0.1,1-0.5,1.8-1.5,1.9C1989.5,586.1,1989.3,586.1,1989.2,586.1z"/>
				</g>
				<g>
					<path class="st24" d="M1986.3,569.7c0,0-0.1,0-0.1,0c-6.3-1-11.4-4.2-15.3-9.7c-14-19.7-7.1-61.5-6.8-63.3c0.2-0.9,1-1.6,2-1.4
						c0.9,0.2,1.6,1.1,1.4,2c-0.1,0.4-7,42.2,6.2,60.7c3.3,4.7,7.7,7.4,13,8.3c0.9,0.1,1.6,1,1.4,2
						C1988,569.2,1987.2,569.8,1986.3,569.7z"/>
				</g>
				<g>
					<path class="st24" d="M2074.6,552.7c-0.1,0-0.1,0-0.1,0c-46.2-8.8-54.6-50.2-54.7-50.6c-0.2-0.8,0.4-1.6,1.1-1.7
						c0.8-0.1,1.5,0.4,1.7,1.2c0.1,0.4,8.2,39.8,52.4,48.3c0.8,0.2,1.3,0.9,1.2,1.7C2076,552.2,2075.4,552.7,2074.6,552.7z"/>
				</g>
				<g>
					<path class="st24" d="M1896.4,552.1c0,0,0.1,0,0.1,0c40.6-8.4,47.7-49.6,47.7-50c0.1-0.8-0.3-1.6-1-1.7
						c-0.7-0.2-1.4,0.3-1.5,1.1c-0.1,0.4-6.8,39.7-45.7,47.7c-0.7,0.1-1.1,0.9-1,1.7C1895.2,551.6,1895.8,552.1,1896.4,552.1z"/>
				</g>
			</g>
			<g>
				<polygon class="st22" points="1975.8,186.1 1975.6,233.4 1975.5,269.6 2019.8,269.8 2020,222.6 2020.1,186.3 				"/>
				<path class="st32" d="M2020,222.6l0.1-36.3l-44.3-0.2l-0.2,47.2C1983.2,234.3,2001.6,234.7,2020,222.6z"/>
			</g>
			<path class="st22" d="M2024.2,249.8C2024.2,249.8,2024.2,249.7,2024.2,249.8c-8.5-1.6-21.4-4.6-28.9-4.7
				c-7.1-0.1-17.6,2.3-24.9,3.6l-38.5,9.1l0.9,12.5c1,14,7.8,27,18.8,35.8l4.7,3.8c17,13.7,40.6,15.8,59.8,5.5l19.2-10.4
				c15.3-8.3,26-23.2,28.8-40.4l1.1-6.8L2024.2,249.8z"/>
			<path class="st30" d="M2107.2,280.5c0,7.5-15.4,18.2-23.3,22.6c-0.3,15.2-1.3,32.4-3.8,47.8c-6.1,36.9-19.4,73.9-27.8,131.6
				c0,0-21.8,7.7-49.9,11c-14.3,1.7-30.3,2.2-45.9,0c-11.5-1.7-22.8-4.8-33.1-10.2l-8.1-89.3c0,0-27.4-8-27.4-40.7
				c0-15.6,3.4-29.3,26.8-47.7v-1.9c-7.3-4-23.9-15.4-23.9-23.2c0-17.2,24.6-20.7,24.6-20.7s10.5-2.5,25.7-5.8
				c-0.8,13.2-0.7,59.2,41.7,59.2c49.6,0,66-29,75.9-57.7c7.5,1.3,18.5,3.2,24.2,4.3C2082.9,259.8,2107.2,263.3,2107.2,280.5z"/>
			<path class="st33" d="M1895.4,367.2c0,0,5.8,4.9,18.4,6c25.4,2.2,67.1,6.8,103.9,0.9c15.4-2.5,26.8-10.3,38.4-19.4
				c0,0-6.9,39.5-55.3,38.7C1952.5,392.6,1898.4,398.5,1895.4,367.2z"/>
		</g>
		<g>
			<path class="st22" d="M2165.3,576.3c0,0-16,17-16.3,24.1c-0.3,7.1-2.3,24-1.7,27.2c1.5,8.1-0.3,19.5,2,19.8
				c2.3,0.3,6.9,1.4,8.9-15.3l2.1,18.6c0,0,0.4,6.8,5.7,6.4c5.7-0.4,5.3-5.8,5.3-5.8l1-7.1c0,0,1.7,3.3,6,2.2
				c4.5-1.1,4.4-9.3,4.4-9.3s2.6,3.3,6.5,1.7c3.9-1.6,4.3-5.3,4.3-5.3s2.8,1.1,4.6-0.1c3-1.9,3.6-9.6,3.6-9.6s-0.4-21.7-9.7-45.4
				C2192.1,578.6,2181.5,555.8,2165.3,576.3z"/>
			<path class="st34" d="M2198.2,633.5c-1.9,1.2-4.6,0.1-4.6,0.1s-0.4,3.6-4.3,5.3c-3.9,1.6-6.5-1.7-6.5-1.7s0.1,8.1-4.4,9.3
				c-4.3,1.1-6-2.2-6-2.2l-1,7.1c0,0,0.4,5.3-5.1,5.8c-5.3,0.5-6-6.4-6-6.4l-2.1-18.3c0-0.1-0.7-15.8,0.2-16.6l2,18.5
				c0,0,4.3,7.3,10.4,3.1c0,0,6.4,3.3,11.1-2.9c0,0,8.3,1.6,11.1-4.4c0,0,7.4,1.4,8.8-7c0,0.5,0,0.8,0,0.8
				S2201.2,631.6,2198.2,633.5z"/>
		</g>
		<g>
			<g>
				<g>
					<path class="st30" d="M2157.1,456c-11.6,2.3-23.3-3.9-28.1-14.7c-17.1-32.5-72.5-137.8-73.4-139.8c-6.1-14.9,1-32,15.9-38.1
						c1.8-0.7,3.6-1.3,5.5-1.7c13.6-2.7,27.3,4.7,32.6,17.5l66.1,142.6l0,0.1c5,12.8-1.3,27.5-14,32.7
						C2160.4,455.2,2158.7,455.6,2157.1,456C2157.1,456,2157.1,456,2157.1,456z"/>
				</g>
			</g>
			<g>
				<g>
					<path class="st22" d="M2173.4,427.2c-2.4-11.3-13.4-18.6-24.8-16.4c-11.4,2.2-19.1,13.6-17.1,25l0,0c0,0,0.9,37.5,29.9,151.1
						l26.6-5.2c0,0,0.4-101.5-14.3-152.8C2173.6,428.6,2173.4,427.2,2173.4,427.2z"/>
					<g>
						<path class="st30" d="M2177.7,427.9c-0.1-0.4-0.2-1.3-0.2-1.4l0-0.3c-2.9-13.4-16.2-22.2-29.7-19.6
							c-13.6,2.7-22.7,15.9-20.4,29.5c0.1,1.9,1.9,10,6.6,30.7l47.7-7.1C2180.8,447.4,2180.3,437.1,2177.7,427.9z"/>
					</g>
				</g>
				<path class="st31" d="M2130.8,453.6c0,0,25.2-0.7,50.1-7.3c0,0,3.5,4.3,2.9,7.5c-0.5,3.3,4.3,11.9,0.9,14.2c0,0-30,9.2-50.4,6.7
					c0,0-3.5-2.5-3-8.8C2131.7,459.6,2128.3,455,2130.8,453.6z"/>
			</g>
		</g>
		<g>
			<g>
				<g>
					<path class="st22" d="M2055.4,154.7c0,35.4-28,64.1-62.6,64.1l0,0c-34.6,0-58.4-29.6-58.4-65l2.3-55.7
						c0-35.4,21.1-44.7,55.7-44.7l0,0c34.6,0,58.2,9,58.2,44.3L2055.4,154.7z"/>
					<path class="st34" d="M1992.8,215.8c33.8,0,61.4-27.5,62.6-61.8l0.1,0.7c0,35.4-28,64.1-62.6,64.1c-34.6,0-58.4-29.6-58.4-65
						l0-1C1935.4,187.3,1958.9,215.8,1992.8,215.8z"/>
				</g>
				<path class="st34" d="M1992.5,53.4c-34.6,0-55.7,9.3-55.7,44.7l-1.1,26.4c5.9-2.3,11.5-4.8,15.2-7c11.3-7,27.2-11.8,33.4-13.3
					s21.7-11,25.2-22.7c0,0,16.8,12.4,19.6,15.6c1.7,1.9,12.4,8.3,22.6,12l-0.9-11.3C2050.7,62.3,2027.1,53.4,1992.5,53.4z"/>
			</g>
			<g>
				<path class="st22" d="M2055.5,130.9c0,0-7.7,1.7-10.4,23.4c-2.7,21.7,2.7,23.5,4.4,24.3c0,0,19.7,5.5,26.5-27.1
					C2081.6,124.5,2055.5,130.9,2055.5,130.9z"/>
				<path class="st34" d="M2050,163.6c0,0,14.3-7.2,3.1-14.4c0,0,3.8-16.4,13.3-12.7c9.6,3.7,1.9,19.1,0,22.3
					C2062.5,165.5,2050,173.6,2050,163.6z"/>
			</g>
			<g>
				<g>
					<path class="st35" d="M2031.6,129.1c-0.3,0-0.7-0.1-1.1-0.2c-2.6-0.9-5.4-1.3-8.2-1.3c-2.8,0-5.5,0.4-8.2,1.3
						c-0.3,0.1-0.7,0.2-1.1,0.2c-1.5,0-2.8-1-3.3-2.4c-0.3-0.9-0.2-1.8,0.2-2.6c0.4-0.8,1.1-1.4,2-1.7c3.3-1.1,6.8-1.6,10.3-1.6
						c3.5,0,7,0.5,10.3,1.6c1.8,0.6,2.8,2.5,2.2,4.3C2034.4,128.2,2033.1,129.1,2031.6,129.1L2031.6,129.1z"/>
				</g>
				<g>
					<g>
						<path class="st35" d="M1945.3,129.1c-1.5,0-2.8-1-3.3-2.4c-0.6-1.8,0.4-3.8,2.2-4.3c3.3-1.1,6.8-1.6,10.3-1.6s7,0.5,10.3,1.6
							c0.9,0.3,1.6,0.9,2,1.7c0.4,0.8,0.5,1.8,0.2,2.6c-0.5,1.4-1.8,2.4-3.3,2.4c-0.4,0-0.7-0.1-1.1-0.2c-2.6-0.9-5.4-1.3-8.2-1.3
							c-2.8,0-5.5,0.4-8.2,1.3C1946,129.1,1945.6,129.1,1945.3,129.1L1945.3,129.1z"/>
					</g>
				</g>
				<path class="st36" d="M2025.1,132.7c-0.2,2-4,2.5-5.4,2.6c-0.4-0.1-0.9-0.2-1.3-0.2c-3.5,0-6.3,4.1-6.3,9.2
					c0,5.1,2.8,9.2,6.3,9.2c3.5,0,6.3-4.1,6.3-9.2c0-2.1-0.5-4-1.3-5.6C2024.5,136.7,2025.1,132.7,2025.1,132.7z"/>
				<path class="st36" d="M1955.9,135.1c-0.4,0-0.9,0.1-1.3,0.2c-1.4-0.1-5.2-0.7-5.4-2.6c0,0,0.6,4,1.7,6.1
					c-0.8,1.5-1.3,3.5-1.3,5.6c0,5.1,2.8,9.2,6.3,9.2c3.5,0,6.3-4.1,6.3-9.2C1962.2,139.2,1959.4,135.1,1955.9,135.1z"/>
				<g class="st37">
					<path class="st38" d="M1963,167.9c0,8.5-8.8,15.3-19.7,15.3c-10.8,0-19.6-6.8-19.6-15.3c0-8.4,8.8-15.3,19.6-15.3
						C1954.2,152.6,1963,159.4,1963,167.9z"/>
					<path class="st39" d="M1962.9,167.9c0,8.4-8.7,15.2-19.3,15.2c-10.7,0-19.3-6.8-19.3-15.2c0-8.4,8.7-15.2,19.3-15.2
						C1954.2,152.7,1962.9,159.5,1962.9,167.9z"/>
					<path class="st40" d="M1962.8,167.9c0,8.3-8.5,15-19,15c-10.5,0-19-6.7-19-15c0-8.3,8.5-15,19-15
						C1954.3,152.9,1962.8,159.6,1962.8,167.9z"/>
					<path class="st41" d="M1962.7,167.9c0,8.2-8.4,14.8-18.7,14.8c-10.3,0-18.7-6.6-18.7-14.8c0-8.2,8.4-14.8,18.7-14.8
						C1954.3,153,1962.7,159.7,1962.7,167.9z"/>
					<path class="st42" d="M1962.6,167.9c0,8.1-8.2,14.7-18.4,14.7c-10.2,0-18.4-6.6-18.4-14.7c0-8.1,8.2-14.7,18.4-14.7
						C1954.4,153.2,1962.6,159.7,1962.6,167.9z"/>
					<path class="st43" d="M1962.5,167.9c0,8-8.1,14.5-18.1,14.5c-10,0-18.1-6.5-18.1-14.5c0-8,8.1-14.5,18.1-14.5
						C1954.4,153.3,1962.5,159.8,1962.5,167.9z"/>
					<path class="st44" d="M1962.5,167.8c0,8-8,14.4-17.8,14.4c-9.8,0-17.8-6.4-17.8-14.4c0-7.9,8-14.4,17.8-14.4
						C1954.5,153.5,1962.5,159.9,1962.5,167.8z"/>
					<path class="st45" d="M1962.4,167.8c0,7.9-7.8,14.2-17.5,14.2c-9.6,0-17.5-6.4-17.5-14.2c0-7.9,7.8-14.2,17.5-14.2
						C1954.6,153.6,1962.4,160,1962.4,167.8z"/>
					<path class="st46" d="M1962.3,167.8c0,7.8-7.7,14.1-17.2,14.1c-9.5,0-17.1-6.3-17.1-14.1c0-7.8,7.7-14.1,17.1-14.1
						C1954.6,153.7,1962.3,160.1,1962.3,167.8z"/>
					<path class="st47" d="M1962.2,167.8c0,7.7-7.5,13.9-16.8,13.9c-9.3,0-16.8-6.2-16.8-13.9c0-7.7,7.5-13.9,16.8-13.9
						C1954.7,153.9,1962.2,160.1,1962.2,167.8z"/>
					<path class="st48" d="M1962.1,167.8c0,7.6-7.4,13.8-16.5,13.8c-9.1,0-16.5-6.2-16.5-13.8c0-7.6,7.4-13.8,16.5-13.8
						C1954.7,154,1962.1,160.2,1962.1,167.8z"/>
					<path class="st49" d="M1962,167.8c0,7.5-7.3,13.6-16.2,13.6c-8.9,0-16.2-6.1-16.2-13.6c0-7.5,7.3-13.6,16.2-13.6
						C1954.8,154.2,1962,160.3,1962,167.8z"/>
					<path class="st50" d="M1962,167.8c0,7.4-7.1,13.5-15.9,13.5c-8.8,0-15.9-6-15.9-13.5c0-7.4,7.1-13.5,15.9-13.5
						C1954.8,154.3,1962,160.4,1962,167.8z"/>
					<path class="st51" d="M1961.9,167.8c0,7.4-7,13.3-15.6,13.3c-8.6,0-15.6-6-15.6-13.3c0-7.4,7-13.3,15.6-13.3
						C1954.9,154.5,1961.9,160.4,1961.9,167.8z"/>
					<path class="st52" d="M1961.8,167.8c0,7.3-6.8,13.2-15.3,13.2c-8.4,0-15.3-5.9-15.3-13.2c0-7.3,6.8-13.2,15.3-13.2
						C1954.9,154.6,1961.8,160.5,1961.8,167.8z"/>
					<path class="st53" d="M1961.7,167.8c0,7.2-6.7,13-15,13c-8.3,0-15-5.8-15-13c0-7.2,6.7-13,15-13
						C1955,154.8,1961.7,160.6,1961.7,167.8z"/>
					<path class="st54" d="M1961.6,167.8c0,7.1-6.6,12.9-14.6,12.9c-8.1,0-14.6-5.8-14.6-12.9c0-7.1,6.6-12.9,14.6-12.9
						C1955.1,154.9,1961.6,160.7,1961.6,167.8z"/>
					<path class="st55" d="M1961.5,167.8c0,7-6.4,12.7-14.3,12.7c-7.9,0-14.3-5.7-14.3-12.7c0-7,6.4-12.7,14.3-12.7
						C1955.1,155.1,1961.5,160.8,1961.5,167.8z"/>
					<path class="st56" d="M1961.4,167.8c0,6.9-6.3,12.6-14,12.6c-7.7,0-14-5.6-14-12.6c0-6.9,6.3-12.6,14-12.6
						C1955.2,155.2,1961.4,160.8,1961.4,167.8z"/>
					<path class="st57" d="M1961.4,167.8c0,6.9-6.1,12.4-13.7,12.4c-7.6,0-13.7-5.6-13.7-12.4c0-6.9,6.1-12.4,13.7-12.4
						C1955.2,155.4,1961.4,160.9,1961.4,167.8z"/>
					<path class="st58" d="M1961.3,167.8c0,6.8-6,12.3-13.4,12.3c-7.4,0-13.4-5.5-13.4-12.3c0-6.8,6-12.3,13.4-12.3
						C1955.3,155.5,1961.3,161,1961.3,167.8z"/>
					<path class="st59" d="M1961.2,167.8c0,6.7-5.9,12.1-13.1,12.1c-7.2,0-13.1-5.4-13.1-12.1c0-6.7,5.9-12.1,13.1-12.1
						C1955.3,155.7,1961.2,161.1,1961.2,167.8z"/>
					<path class="st60" d="M1961.1,167.8c0,6.6-5.7,12-12.8,12c-7,0-12.8-5.4-12.8-12c0-6.6,5.7-12,12.8-12
						C1955.4,155.8,1961.1,161.2,1961.1,167.8z"/>
					<path class="st61" d="M1961,167.7c0,6.5-5.6,11.8-12.5,11.8c-6.9,0-12.4-5.3-12.4-11.8c0-6.5,5.6-11.8,12.4-11.8
						C1955.5,155.9,1961,161.2,1961,167.7z"/>
					<path class="st62" d="M1960.9,167.7c0,6.4-5.4,11.6-12.1,11.6c-6.7,0-12.1-5.2-12.1-11.6c0-6.4,5.4-11.6,12.1-11.6
						C1955.5,156.1,1960.9,161.3,1960.9,167.7z"/>
					<path class="st63" d="M1960.9,167.7c0,6.3-5.3,11.5-11.8,11.5c-6.5,0-11.8-5.2-11.8-11.5c0-6.3,5.3-11.5,11.8-11.5
						C1955.6,156.2,1960.9,161.4,1960.9,167.7z"/>
					<path class="st64" d="M1960.8,167.7c0,6.3-5.2,11.3-11.5,11.3c-6.4,0-11.5-5.1-11.5-11.3c0-6.3,5.2-11.3,11.5-11.3
						C1955.6,156.4,1960.8,161.5,1960.8,167.7z"/>
					<path class="st65" d="M1960.7,167.7c0,6.2-5,11.2-11.2,11.2c-6.2,0-11.2-5-11.2-11.2c0-6.2,5-11.2,11.2-11.2
						C1955.7,156.5,1960.7,161.5,1960.7,167.7z"/>
					<path class="st66" d="M1960.6,167.7c0,6.1-4.9,11-10.9,11c-6,0-10.9-4.9-10.9-11c0-6.1,4.9-11,10.9-11
						C1955.7,156.7,1960.6,161.6,1960.6,167.7z"/>
					<path class="st67" d="M1960.5,167.7c0,6-4.7,10.9-10.6,10.9c-5.8,0-10.6-4.9-10.6-10.9c0-6,4.7-10.9,10.6-10.9
						C1955.8,156.8,1960.5,161.7,1960.5,167.7z"/>
					<path class="st68" d="M1960.4,167.7c0,5.9-4.6,10.7-10.3,10.7s-10.3-4.8-10.3-10.7c0-5.9,4.6-10.7,10.3-10.7
						S1960.4,161.8,1960.4,167.7z"/>
					<path class="st69" d="M1960.4,167.7c0,5.8-4.5,10.6-9.9,10.6c-5.5,0-9.9-4.7-9.9-10.6c0-5.8,4.5-10.6,9.9-10.6
						C1955.9,157.1,1960.4,161.9,1960.4,167.7z"/>
				</g>
				<g>
					<path class="st34" d="M1992.5,172.9c-9.4,4.3-15.2,2.1-16.4-4.2c-0.8-4.1,1.6-8.8,4.1-11c5.3-4.7,7.6-18.3,7.6-18.5l0,0
						c0.4,2.9-0.2,14.3-6.6,22.2c-1.4,1.7-1.9,3.3-1.8,5.4C1979.8,171.4,1984.3,175.1,1992.5,172.9L1992.5,172.9z"/>
				</g>
				<g class="st37">
					<path class="st38" d="M2017.6,167.7c0,9.9,10.3,17.9,23,17.9c12.7,0,22.9-8,22.9-17.9c0-9.9-10.3-17.9-22.9-17.9
						C2027.8,149.8,2017.6,157.8,2017.6,167.7z"/>
					<path class="st39" d="M2017.7,167.7c0,9.8,10.1,17.7,22.6,17.7c12.5,0,22.6-7.9,22.6-17.7c0-9.8-10.1-17.7-22.6-17.7
						C2027.8,150,2017.7,157.9,2017.7,167.7z"/>
					<path class="st40" d="M2017.8,167.7c0,9.7,10,17.5,22.2,17.5c12.3,0,22.2-7.8,22.2-17.5c0-9.7-9.9-17.5-22.2-17.5
						C2027.7,150.2,2017.8,158,2017.8,167.7z"/>
					<path class="st41" d="M2017.9,167.7c0,9.6,9.8,17.3,21.9,17.3c12.1,0,21.9-7.8,21.9-17.3c0-9.6-9.8-17.3-21.9-17.3
						C2027.6,150.4,2017.9,158.1,2017.9,167.7z"/>
					<path class="st42" d="M2018,167.7c0,9.5,9.6,17.2,21.5,17.2c11.9,0,21.5-7.7,21.5-17.2c0-9.5-9.6-17.2-21.5-17.2
						C2027.6,150.5,2018,158.2,2018,167.7z"/>
					<path class="st43" d="M2018.1,167.7c0,9.4,9.5,17,21.1,17c11.7,0,21.1-7.6,21.1-17c0-9.4-9.5-17-21.1-17
						C2027.5,150.7,2018.1,158.3,2018.1,167.7z"/>
					<path class="st44" d="M2018.2,167.7c0,9.3,9.3,16.8,20.8,16.8c11.5,0,20.8-7.5,20.8-16.8c0-9.3-9.3-16.8-20.8-16.8
						C2027.4,150.9,2018.2,158.4,2018.2,167.7z"/>
					<path class="st45" d="M2018.3,167.7c0,9.2,9.1,16.6,20.4,16.6c11.3,0,20.4-7.4,20.4-16.6c0-9.2-9.1-16.6-20.4-16.6
						C2027.4,151,2018.3,158.5,2018.3,167.7z"/>
					<path class="st46" d="M2018.3,167.7c0,9.1,9,16.5,20,16.5c11.1,0,20-7.4,20-16.5c0-9.1-9-16.5-20-16.5
						C2027.3,151.2,2018.3,158.6,2018.3,167.7z"/>
					<path class="st47" d="M2018.4,167.7c0,9,8.8,16.3,19.7,16.3c10.9,0,19.7-7.3,19.7-16.3c0-9-8.8-16.3-19.7-16.3
						C2027.3,151.4,2018.4,158.7,2018.4,167.7z"/>
					<path class="st48" d="M2018.5,167.6c0,8.9,8.6,16.1,19.3,16.1c10.7,0,19.3-7.2,19.3-16.1c0-8.9-8.6-16.1-19.3-16.1
						C2027.2,151.6,2018.5,158.8,2018.5,167.6z"/>
					<path class="st49" d="M2018.6,167.6c0,8.8,8.5,15.9,18.9,15.9c10.5,0,18.9-7.1,18.9-15.9c0-8.8-8.5-15.9-18.9-15.9
						C2027.1,151.7,2018.6,158.8,2018.6,167.6z"/>
					<path class="st50" d="M2018.7,167.6c0,8.7,8.3,15.7,18.6,15.7c10.3,0,18.6-7,18.6-15.7c0-8.7-8.3-15.7-18.6-15.7
						C2027.1,151.9,2018.7,158.9,2018.7,167.6z"/>
					<path class="st51" d="M2018.8,167.6c0,8.6,8.1,15.6,18.2,15.6c10,0,18.2-7,18.2-15.6c0-8.6-8.1-15.6-18.2-15.6
						C2027,152.1,2018.8,159,2018.8,167.6z"/>
					<path class="st52" d="M2018.9,167.6c0,8.5,8,15.4,17.8,15.4c9.8,0,17.8-6.9,17.8-15.4c0-8.5-8-15.4-17.8-15.4
						C2026.9,152.2,2018.9,159.1,2018.9,167.6z"/>
					<path class="st53" d="M2019,167.6c0,8.4,7.8,15.2,17.5,15.2c9.6,0,17.5-6.8,17.5-15.2c0-8.4-7.8-15.2-17.5-15.2
						C2026.9,152.4,2019,159.2,2019,167.6z"/>
					<path class="st54" d="M2019.1,167.6c0,8.3,7.7,15,17.1,15c9.4,0,17.1-6.7,17.1-15c0-8.3-7.7-15-17.1-15
						C2026.8,152.6,2019.1,159.3,2019.1,167.6z"/>
					<path class="st55" d="M2019.2,167.6c0,8.2,7.5,14.9,16.7,14.9c9.2,0,16.7-6.7,16.7-14.9c0-8.2-7.5-14.8-16.7-14.8
						C2026.7,152.7,2019.2,159.4,2019.2,167.6z"/>
					<path class="st56" d="M2019.3,167.6c0,8.1,7.3,14.7,16.4,14.7c9,0,16.4-6.6,16.4-14.7c0-8.1-7.3-14.7-16.4-14.7
						C2026.7,152.9,2019.3,159.5,2019.3,167.6z"/>
					<path class="st57" d="M2019.4,167.6c0,8,7.2,14.5,16,14.5c8.8,0,16-6.5,16-14.5c0-8-7.2-14.5-16-14.5
						C2026.6,153.1,2019.4,159.6,2019.4,167.6z"/>
					<path class="st58" d="M2019.5,167.6c0,7.9,7,14.3,15.6,14.3c8.6,0,15.6-6.4,15.6-14.3c0-7.9-7-14.3-15.6-14.3
						C2026.5,153.3,2019.5,159.7,2019.5,167.6z"/>
					<path class="st59" d="M2019.6,167.6c0,7.8,6.8,14.1,15.3,14.1c8.4,0,15.3-6.3,15.3-14.1c0-7.8-6.8-14.1-15.3-14.1
						C2026.5,153.4,2019.6,159.8,2019.6,167.6z"/>
					<path class="st60" d="M2019.7,167.6c0,7.7,6.7,14,14.9,14c8.2,0,14.9-6.3,14.9-14c0-7.7-6.7-14-14.9-14
						C2026.4,153.6,2019.7,159.9,2019.7,167.6z"/>
					<path class="st61" d="M2019.8,167.6c0,7.6,6.5,13.8,14.5,13.8c8,0,14.5-6.2,14.5-13.8c0-7.6-6.5-13.8-14.5-13.8
						C2026.3,153.8,2019.8,159.9,2019.8,167.6z"/>
					<path class="st62" d="M2019.9,167.6c0,7.5,6.3,13.6,14.2,13.6c7.8,0,14.2-6.1,14.2-13.6c0-7.5-6.3-13.6-14.2-13.6
						C2026.3,153.9,2019.9,160,2019.9,167.6z"/>
					<path class="st63" d="M2020,167.5c0,7.4,6.2,13.4,13.8,13.4c7.6,0,13.8-6,13.8-13.4c0-7.4-6.2-13.4-13.8-13.4
						C2026.2,154.1,2020,160.1,2020,167.5z"/>
					<path class="st64" d="M2020.1,167.5c0,7.3,6,13.3,13.4,13.3c7.4,0,13.4-5.9,13.4-13.3c0-7.3-6-13.2-13.4-13.2
						C2026.1,154.3,2020.1,160.2,2020.1,167.5z"/>
					<path class="st65" d="M2020.2,167.5c0,7.2,5.9,13.1,13.1,13.1c7.2,0,13.1-5.9,13.1-13.1c0-7.2-5.9-13.1-13.1-13.1
						C2026.1,154.5,2020.2,160.3,2020.2,167.5z"/>
					<path class="st66" d="M2020.3,167.5c0,7.1,5.7,12.9,12.7,12.9c7,0,12.7-5.8,12.7-12.9c0-7.1-5.7-12.9-12.7-12.9
						C2026,154.6,2020.3,160.4,2020.3,167.5z"/>
					<path class="st67" d="M2020.4,167.5c0,7,5.5,12.7,12.3,12.7c6.8,0,12.3-5.7,12.3-12.7c0-7-5.5-12.7-12.3-12.7
						C2025.9,154.8,2020.4,160.5,2020.4,167.5z"/>
					<path class="st68" d="M2020.5,167.5c0,6.9,5.4,12.5,12,12.5c6.6,0,12-5.6,12-12.5c0-6.9-5.4-12.5-12-12.5
						C2025.9,155,2020.5,160.6,2020.5,167.5z"/>
					<path class="st69" d="M2020.6,167.5c0,6.8,5.2,12.4,11.6,12.4c6.4,0,11.6-5.5,11.6-12.4c0-6.8-5.2-12.4-11.6-12.4
						C2025.8,155.1,2020.6,160.7,2020.6,167.5z"/>
				</g>
				<g>
					<path class="st70" d="M1988.7,195.1c-15.3,0-19.7-9-19.8-9.4c-0.5-1,0.1-2.1,1.3-2.6c1.2-0.4,2.5,0.1,3,1.1
						c0.2,0.3,3.6,6.9,15.6,6.9c12,0,15.3-6.6,15.4-6.9c0.5-1,1.8-1.5,3-1.1c1.2,0.4,1.8,1.5,1.3,2.5
						C2008.2,186.1,2004,195.1,1988.7,195.1z"/>
				</g>
			</g>
			<g>
				<path class="st35" d="M2065.5,115.6c1-5.9,6.5-4.3,6.7-17.4c0.2-14.6-3.3-18.7-9.1-25c-6-6.5-7.6-37.4-54-28.2
					c-38.9-33.1-68.6,4.6-69.7,22.8c-0.7,11.2-14.8,10.6-21.6,35.1c-6.3,22.8,4.6,29.8,4.6,29.8s-7.2,9.4-4.5,22.5
					c1.8,8.8,13.3,19.2,14.8,24.1c1.5,4.7,0.1,8.6-1.2,11.8c-1.3,3.2-3,8.6,1.3,8.2c4.2-0.4,6.7-4.4,8.1-10.4
					c2-8.4-2.7-11.2-4.6-26.6c-1.7-14-1.2-22.4,2.3-33.5c3.2-10.2,16.5-19.8,38.5-26c21.6-6,30.8-24.4,32.4-27.8
					c2.5,2.5,13.4,13.4,19.3,17.5c8.1,5.6,18.4,14.1,19.6,22.7c0.9,7,0.9,47.7,0.9,47.7s3.7-16.8,5.8-20.6c2.6-4.7,6.5-5,9.5-12
					C2067.3,123.9,2064.3,122.9,2065.5,115.6z"/>
				<path class="st21" d="M2063,73.2c-2.2-2.4-3.8-7.9-7.1-13.6c-15.3,7.2-34.4,11.5-55.1,11.5c-22.4,0-42.9-5-58.7-13.4
					c-1.6,3.6-2.5,7.1-2.7,10c-0.3,5.3-3.7,8-7.8,11.9c13.7,10,33.1,17.1,55,19.2c14.9-7.8,21.6-21.2,22.9-24
					c2.5,2.5,13.4,13.4,19.3,17.5c1.5,1.1,3.1,2.2,4.7,3.5c13.7-3.3,25.8-8.6,35.4-15.3C2067.3,77.9,2065.4,75.7,2063,73.2z"/>
				<path class="st36" d="M2009.4,46.4c0,0,6,16.7,0.9,26.3C2010.3,72.7,2012.5,58.2,2009.4,46.4z"/>
			</g>
		</g>
	</g>
</g>
</svg>
