<?xml version="1.0" encoding="utf-8"?>
<!-- Generator: Adobe Illustrator 27.0.0, SVG Export Plug-In . SVG Version: 6.00 Build 0)  -->
<svg version="1.1" id="Layer_1" xmlns="http://www.w3.org/2000/svg" xmlns:xlink="http://www.w3.org/1999/xlink" x="0px" y="0px" width="2400px" height="1216px" viewBox="0 0 2400 1216" style="enable-background:new 0 0 2400 1216;" xml:space="preserve">
<style type="text/css">
	.st0{fill:#E7F2FB;}
	.st1{fill:#274867;}
	.st2{fill:#F3F3F3;}
	.st3{fill:#1A1A1A;}
	.st4{fill:#B4B4B4;}
	.st5{fill:#3F70B7;}
	.st6{fill:#FFFFFF;}
	.st7{fill:#E4E4E4;}
	.st8{fill:#010101;}
	.st9{fill:#747474;}
	.st10{fill:#777777;}
	.st11{fill:#D6D7D8;}
	.st12{fill:#B7B7B8;}
</style>
<g id="Layer_2_00000010272464917273658530000011005465220895409836_">
	<rect class="st0" width="2400" height="1216"/>
</g>
<g id="Layer_1_00000011017565667977735660000003443150486002302636_">
	<rect x="-17.2" class="st1" width="2434" height="1217"/>
	<rect x="550.7" y="162.6" class="st2" width="1298.1" height="933"/>
	<g>
		<path class="st3" d="M1848.8,203.2H550.7v-80.8c0-0.2,0.2-0.4,0.4-0.4h1297.4c0.2,0,0.4,0.2,0.4,0.4L1848.8,203.2L1848.8,203.2z"/>
	</g>
	<g>
		<path class="st4" d="M585.3,176.1v-26.3h3.6l13.8,20.6v-20.6h3.3v26.3h-3.6l-13.8-20.7v20.7H585.3z"/>
		<path class="st4" d="M624.5,169.9l3.3,0.4c-0.5,1.9-1.5,3.5-2.9,4.5c-1.4,1.1-3.2,1.6-5.5,1.6c-2.8,0-5-0.9-6.6-2.6
			c-1.6-1.7-2.4-4.1-2.4-7.2c0-3.2,0.8-5.7,2.5-7.5c1.6-1.8,3.8-2.7,6.4-2.7c2.5,0,4.6,0.9,6.2,2.6c1.6,1.7,2.4,4.2,2.4,7.3
			c0,0.2,0,0.5,0,0.9h-14.2c0.1,2.1,0.7,3.7,1.8,4.8s2.4,1.7,4,1.7c1.2,0,2.2-0.3,3-0.9C623.3,172.3,624,171.3,624.5,169.9z
			 M613.9,164.7h10.6c-0.1-1.6-0.6-2.8-1.2-3.6c-1-1.2-2.4-1.9-4-1.9c-1.5,0-2.7,0.5-3.7,1.5S614,163,613.9,164.7z"/>
		<path class="st4" d="M635.4,176.1l-5.8-19.1h3.3l3,11l1.1,4.1c0-0.2,0.4-1.5,1-3.9l3-11.2h3.3l2.9,11.1l1,3.6l1.1-3.7l3.3-11h3.1
			l-6,19.1h-3.4l-3-11.4l-0.7-3.2l-3.9,14.7h-3.3V176.1z"/>
		<path class="st4" d="M668.6,176.1V157h2.9v2.7c0.6-0.9,1.4-1.7,2.4-2.2c1-0.6,2.1-0.9,3.4-0.9c1.4,0,2.6,0.3,3.5,0.9
			c0.9,0.6,1.5,1.4,1.9,2.5c1.5-2.2,3.5-3.3,5.9-3.3c1.9,0,3.3,0.5,4.4,1.6c1,1,1.5,2.7,1.5,4.8v13.1h-3.2v-12
			c0-1.3-0.1-2.2-0.3-2.8s-0.6-1-1.1-1.4c-0.6-0.3-1.2-0.5-1.9-0.5c-1.3,0-2.5,0.4-3.3,1.3c-0.9,0.9-1.3,2.3-1.3,4.3v11.1h-3.2
			v-12.4c0-1.4-0.3-2.5-0.8-3.2s-1.4-1.1-2.6-1.1c-0.9,0-1.8,0.2-2.5,0.7c-0.8,0.5-1.3,1.2-1.7,2.1c-0.3,0.9-0.5,2.2-0.5,4v9.9h-3.5
			V176.1z"/>
		<path class="st4" d="M712.3,169.9l3.3,0.4c-0.5,1.9-1.5,3.5-2.9,4.5c-1.4,1.1-3.2,1.6-5.5,1.6c-2.8,0-5-0.9-6.6-2.6
			c-1.6-1.7-2.4-4.1-2.4-7.2c0-3.2,0.8-5.7,2.5-7.5c1.6-1.8,3.8-2.7,6.4-2.7c2.5,0,4.6,0.9,6.2,2.6c1.6,1.7,2.4,4.2,2.4,7.3
			c0,0.2,0,0.5,0,0.9h-14.2c0.1,2.1,0.7,3.7,1.8,4.8s2.4,1.7,4,1.7c1.2,0,2.2-0.3,3-0.9C711.1,172.3,711.8,171.3,712.3,169.9z
			 M701.7,164.7h10.6c-0.1-1.6-0.6-2.8-1.2-3.6c-1-1.2-2.4-1.9-4-1.9c-1.5,0-2.7,0.5-3.7,1.5C702.3,161.7,701.8,163,701.7,164.7z"/>
		<path class="st4" d="M718.4,170.4l3.2-0.5c0.2,1.3,0.7,2.3,1.5,2.9c0.8,0.7,2,1,3.4,1c1.5,0,2.6-0.3,3.3-0.9
			c0.7-0.6,1.1-1.3,1.1-2.1c0-0.7-0.3-1.3-1-1.7c-0.4-0.3-1.5-0.6-3.3-1.1c-2.4-0.6-4-1.1-4.9-1.6c-0.9-0.4-1.6-1-2.1-1.8
			s-0.7-1.6-0.7-2.6c0-0.9,0.2-1.6,0.6-2.4c0.4-0.7,0.9-1.3,1.6-1.8c0.5-0.4,1.2-0.7,2.1-0.9c0.9-0.3,1.8-0.4,2.8-0.4
			c1.5,0,2.8,0.2,3.9,0.6c1.1,0.4,2,1,2.5,1.7s0.9,1.7,1.1,3l-3.2,0.4c-0.1-1-0.6-1.7-1.2-2.3c-0.7-0.6-1.7-0.8-2.9-0.8
			c-1.5,0-2.5,0.2-3.2,0.7c-0.6,0.5-1,1.1-1,1.7c0,0.4,0.1,0.8,0.4,1.1c0.3,0.3,0.7,0.6,1.2,0.9c0.3,0.1,1.3,0.4,2.9,0.8
			c2.3,0.6,3.9,1.1,4.8,1.5c0.9,0.4,1.6,1,2.1,1.7s0.8,1.7,0.8,2.8s-0.3,2.1-0.9,3c-0.6,1-1.5,1.7-2.7,2.2s-2.5,0.8-4,0.8
			c-2.5,0-4.4-0.5-5.7-1.5C719.6,173.9,718.7,172.4,718.4,170.4z"/>
		<path class="st4" d="M736.7,170.4l3.2-0.5c0.2,1.3,0.7,2.3,1.5,2.9c0.8,0.7,2,1,3.4,1c1.5,0,2.6-0.3,3.3-0.9
			c0.7-0.6,1.1-1.3,1.1-2.1c0-0.7-0.3-1.3-1-1.7c-0.4-0.3-1.5-0.6-3.3-1.1c-2.4-0.6-4-1.1-4.9-1.6c-0.9-0.4-1.6-1-2.1-1.8
			s-0.7-1.6-0.7-2.6c0-0.9,0.2-1.6,0.6-2.4c0.4-0.7,0.9-1.3,1.6-1.8c0.5-0.4,1.2-0.7,2.1-0.9c0.9-0.3,1.8-0.4,2.8-0.4
			c1.5,0,2.8,0.2,3.9,0.6c1.1,0.4,2,1,2.5,1.7s0.9,1.7,1.1,3l-3.2,0.4c-0.1-1-0.6-1.7-1.2-2.3c-0.7-0.6-1.7-0.8-2.9-0.8
			c-1.5,0-2.5,0.2-3.2,0.7c-0.6,0.5-1,1.1-1,1.7c0,0.4,0.1,0.8,0.4,1.1c0.3,0.3,0.7,0.6,1.2,0.9c0.3,0.1,1.3,0.4,2.9,0.8
			c2.3,0.6,3.9,1.1,4.8,1.5c0.9,0.4,1.6,1,2.1,1.7s0.8,1.7,0.8,2.8s-0.3,2.1-0.9,3c-0.6,1-1.5,1.7-2.7,2.2s-2.5,0.8-4,0.8
			c-2.5,0-4.4-0.5-5.7-1.5C737.9,173.9,737.1,172.4,736.7,170.4z"/>
		<path class="st4" d="M768.8,173.7c-1.2,1-2.3,1.7-3.5,2.2c-1.1,0.4-2.3,0.6-3.6,0.6c-2.1,0-3.7-0.5-4.8-1.5s-1.7-2.3-1.7-3.9
			c0-0.9,0.2-1.8,0.6-2.6c0.4-0.8,1-1.4,1.7-1.9s1.5-0.8,2.3-1.1c0.6-0.2,1.6-0.3,2.9-0.5c2.6-0.3,4.5-0.7,5.8-1.1
			c0-0.4,0-0.7,0-0.8c0-1.3-0.3-2.2-0.9-2.8c-0.8-0.7-2-1.1-3.7-1.1c-1.5,0-2.6,0.3-3.4,0.8c-0.7,0.5-1.3,1.5-1.6,2.8l-3.2-0.4
			c0.3-1.4,0.8-2.4,1.4-3.3c0.7-0.8,1.6-1.5,2.9-1.9c1.2-0.5,2.7-0.7,4.3-0.7s2.9,0.2,4,0.6c1,0.4,1.8,0.9,2.2,1.4
			c0.5,0.6,0.8,1.3,1,2.2c0.1,0.6,0.2,1.5,0.2,3v4.3c0,3,0.1,4.9,0.2,5.7c0.1,0.8,0.4,1.6,0.8,2.3h-3.4
			C769.1,175.4,768.9,174.6,768.8,173.7z M768.6,166.5c-1.2,0.5-2.9,0.9-5.3,1.2c-1.3,0.2-2.3,0.4-2.8,0.6c-0.5,0.2-1,0.6-1.3,1
			c-0.3,0.5-0.4,1-0.4,1.5c0,0.9,0.3,1.6,1,2.2c0.7,0.6,1.6,0.9,2.9,0.9c1.2,0,2.3-0.3,3.3-0.8s1.7-1.3,2.1-2.2
			c0.3-0.7,0.5-1.8,0.5-3.2V166.5z"/>
		<path class="st4" d="M776.2,177.6l3.1,0.5c0.1,1,0.5,1.7,1.1,2.1c0.8,0.6,1.9,0.9,3.3,0.9c1.5,0,2.6-0.3,3.5-0.9
			c0.8-0.6,1.4-1.4,1.6-2.5c0.2-0.7,0.2-2,0.2-4.1c-1.4,1.7-3.2,2.5-5.3,2.5c-2.6,0-4.6-0.9-6.1-2.8c-1.4-1.9-2.2-4.2-2.2-6.8
			c0-1.8,0.3-3.5,1-5s1.6-2.7,2.9-3.6c1.3-0.8,2.7-1.3,4.4-1.3c2.2,0,4.1,0.9,5.6,2.7V157h3v16.5c0,3-0.3,5.1-0.9,6.3
			c-0.6,1.2-1.6,2.2-2.9,2.9c-1.3,0.7-2.9,1.1-4.8,1.1c-2.3,0-4.1-0.5-5.5-1.5C776.9,181.2,776.2,179.7,776.2,177.6z M778.9,166.2
			c0,2.5,0.5,4.3,1.5,5.5c1,1.1,2.2,1.7,3.7,1.7s2.7-0.6,3.7-1.7c1-1.1,1.5-2.9,1.5-5.4c0-2.3-0.5-4.1-1.6-5.3
			c-1-1.2-2.3-1.8-3.7-1.8s-2.7,0.6-3.7,1.7C779.4,162.2,778.9,163.9,778.9,166.2z"/>
		<path class="st4" d="M810.3,169.9l3.3,0.4c-0.5,1.9-1.5,3.5-2.9,4.5c-1.4,1.1-3.2,1.6-5.5,1.6c-2.8,0-5-0.9-6.6-2.6
			c-1.6-1.7-2.4-4.1-2.4-7.2c0-3.2,0.8-5.7,2.5-7.5c1.6-1.8,3.8-2.7,6.4-2.7c2.5,0,4.6,0.9,6.2,2.6c1.6,1.7,2.4,4.2,2.4,7.3
			c0,0.2,0,0.5,0,0.9h-14.2c0.1,2.1,0.7,3.7,1.8,4.8s2.4,1.7,4,1.7c1.2,0,2.2-0.3,3-0.9C809.2,172.3,809.8,171.3,810.3,169.9z
			 M799.7,164.7h10.6c-0.1-1.6-0.6-2.8-1.2-3.6c-1-1.2-2.4-1.9-4-1.9c-1.5,0-2.7,0.5-3.7,1.5C800.4,161.7,799.8,163,799.7,164.7z"/>
	</g>
	<g>
		<g>
			
				<rect x="1792" y="157.7" transform="matrix(0.7129 -0.7013 0.7013 0.7129 406.8441 1313.1631)" class="st4" width="30.2" height="4.1"/>
			
				<rect x="1805" y="144.6" transform="matrix(0.7007 -0.7134 0.7134 0.7007 426.8337 1337.0009)" class="st4" width="4.1" height="30.2"/>
		</g>
		<rect x="1668.6" y="168.3" class="st4" width="26.2" height="4.1"/>
		<g>
			<g>
				
					<rect x="1747" y="148.2" transform="matrix(0.6992 -0.715 0.715 0.6992 420.2607 1299.2864)" class="st4" width="14.2" height="4.1"/>
				<g>
					<polygon class="st4" points="1758,159.6 1744.6,146.5 1744.8,159.8 					"/>
				</g>
			</g>
			<g>
				
					<rect x="1728.5" y="167.1" transform="matrix(0.6993 -0.7149 0.7149 0.6993 401.0436 1291.5521)" class="st4" width="14.2" height="4.1"/>
				<g>
					<polygon class="st4" points="1731.5,159.9 1744.9,173 1744.8,159.8 					"/>
				</g>
			</g>
		</g>
	</g>
	<g>
		<path class="st5" d="M778.1,1056.8H591.5c-0.5,0-0.9-0.4-0.9-0.9v-71.6c0-0.5,0.4-0.9,0.9-0.9h186.6c0.5,0,0.9,0.4,0.9,0.9v71.6
			C779,1056.4,778.6,1056.8,778.1,1056.8z"/>
		<g>
			<path class="st6" d="M642,1021.5l3.4-0.3c0.2,1.4,0.5,2.5,1.1,3.4c0.6,0.9,1.5,1.6,2.7,2.1s2.6,0.8,4.2,0.8
				c1.4,0,2.6-0.2,3.6-0.6c1.1-0.4,1.8-1,2.4-1.7c0.5-0.7,0.8-1.5,0.8-2.3c0-0.9-0.2-1.6-0.7-2.2c-0.5-0.6-1.3-1.2-2.5-1.6
				c-0.7-0.3-2.3-0.7-4.9-1.3c-2.5-0.6-4.3-1.2-5.3-1.7c-1.3-0.7-2.3-1.5-2.9-2.5c-0.6-1-1-2.1-1-3.4c0-1.4,0.4-2.7,1.2-3.9
				s1.9-2.1,3.4-2.7c1.5-0.6,3.2-0.9,5-0.9c2,0,3.8,0.3,5.3,1c1.5,0.6,2.7,1.6,3.6,2.9c0.8,1.3,1.3,2.7,1.3,4.3l-3.5,0.3
				c-0.2-1.7-0.8-3-1.9-3.9c-1.1-0.9-2.7-1.3-4.8-1.3c-2.2,0-3.8,0.4-4.8,1.2s-1.5,1.8-1.5,2.9c0,1,0.4,1.8,1.1,2.4
				c0.7,0.6,2.5,1.3,5.4,1.9c2.9,0.7,4.9,1.2,6,1.7c1.6,0.7,2.8,1.7,3.5,2.8c0.8,1.1,1.1,2.4,1.1,3.9c0,1.4-0.4,2.8-1.2,4.1
				s-2,2.3-3.6,3s-3.3,1.1-5.3,1.1c-2.5,0-4.5-0.4-6.2-1.1s-3-1.8-3.9-3.2C642.6,1025,642.1,1023.3,642,1021.5z"/>
			<path class="st6" d="M681.7,1023.9l3.5,0.4c-0.5,2-1.6,3.6-3,4.7c-1.5,1.1-3.4,1.7-5.7,1.7c-2.9,0-5.2-0.9-6.9-2.7
				c-1.7-1.8-2.5-4.3-2.5-7.5c0-3.3,0.9-5.9,2.6-7.7c1.7-1.8,3.9-2.8,6.7-2.8c2.6,0,4.8,0.9,6.5,2.7s2.5,4.3,2.5,7.6
				c0,0.2,0,0.5,0,0.9h-14.7c0.1,2.2,0.7,3.8,1.8,5s2.5,1.7,4.1,1.7c1.2,0,2.3-0.3,3.1-1C680.6,1026.4,681.2,1025.3,681.7,1023.9z
				 M670.8,1018.5h11c-0.2-1.7-0.6-2.9-1.3-3.7c-1.1-1.3-2.5-1.9-4.2-1.9c-1.5,0-2.8,0.5-3.9,1.5
				C671.4,1015.4,670.9,1016.8,670.8,1018.5z"/>
			<path class="st6" d="M689.4,1030.3v-19.8h3v2.8c1.4-2.2,3.5-3.3,6.3-3.3c1.2,0,2.3,0.2,3.3,0.6c1,0.4,1.7,1,2.2,1.7
				s0.8,1.5,1,2.5c0.1,0.6,0.2,1.7,0.2,3.3v12.2h-3.3v-12c0-1.4-0.1-2.4-0.4-3.1c-0.3-0.7-0.7-1.2-1.4-1.6c-0.7-0.4-1.4-0.6-2.3-0.6
				c-1.4,0-2.7,0.5-3.7,1.4s-1.6,2.6-1.6,5.2v10.8h-3.3V1030.3z"/>
			<path class="st6" d="M723.4,1030.3v-2.5c-1.3,2-3.1,2.9-5.5,2.9c-1.6,0-3-0.4-4.3-1.3s-2.3-2.1-3.1-3.6c-0.7-1.6-1.1-3.3-1.1-5.4
				c0-2,0.3-3.8,1-5.4c0.7-1.6,1.6-2.8,3-3.7c1.3-0.9,2.8-1.3,4.4-1.3c1.2,0,2.3,0.3,3.2,0.8s1.7,1.2,2.3,2v-9.8h3.3v27.3H723.4z
				 M712.8,1020.4c0,2.5,0.5,4.4,1.6,5.7c1.1,1.3,2.3,1.9,3.8,1.9s2.7-0.6,3.7-1.8c1-1.2,1.5-3,1.5-5.5c0-2.7-0.5-4.7-1.6-6
				c-1-1.3-2.3-1.9-3.9-1.9c-1.5,0-2.7,0.6-3.7,1.8C713.3,1015.9,712.8,1017.8,712.8,1020.4z"/>
		</g>
		<g>
			<path class="st7" d="M872.5,1056.7h-71.4c-0.6,0-1-0.4-1-1v-71.4c0-0.6,0.4-1,1-1h71.4c0.6,0,1,0.4,1,1v71.4
				C873.5,1056.3,873.1,1056.7,872.5,1056.7z"/>
			<g>
				<path class="st8" d="M821,1041.1l13.4-34.8h5l14.3,34.8h-5.3l-4.1-10.6h-14.6l-3.8,10.6H821z M831,1026.8h11.8l-3.6-9.7
					c-1.1-2.9-1.9-5.3-2.5-7.2c-0.4,2.2-1.1,4.5-1.9,6.7L831,1026.8z"/>
			</g>
		</g>
		<path class="st9" d="M916.6,1044.9h-11c-3.2,0-7.8-2.5-7.8-6.4v-36.8c0-3.9,4.6-6.4,7.8-6.4h5.5c3.5,0,6.4,2.9,6.4,6.4v30.7
			c0,3.6-2.9,6.4-6.4,6.4c-3.6,0-6.5-2.9-6.5-6.4v-24.8h4.1v24.8c0,1.3,1.1,2.4,2.4,2.4c1.3,0,2.4-1.1,2.4-2.4v-30.7
			c0-1.3-1.1-2.4-2.4-2.4h-5.5c-1.7,0-3.8,1.5-3.8,2.4v36.8c0,0.9,2.1,2.4,3.8,2.4h11c1.6,0,3.7-1.4,3.7-2.4v-27.2h4.1v27.2
			C924.3,1042.1,920.1,1044.9,916.6,1044.9z"/>
		<g>
			<path class="st9" d="M983.3,1006.9h-8v4.1h8c5.1,0,9.2,4.1,9.2,9.1c0,5.1-4.1,9.2-9.2,9.2h-8v4.1h8c7.3,0,13.3-5.9,13.3-13.2
				C996.6,1012.8,990.6,1006.9,983.3,1006.9z M950.2,1020.1c0,7.3,5.9,13.2,13.2,13.2h8v-4.1h-8c-5,0-9.2-4.1-9.2-9.2
				c0-5,4.1-9.1,9.2-9.1h8v-4.1h-8C956.1,1006.9,950.2,1012.8,950.2,1020.1z"/>
			<rect x="966.1" y="1018.1" class="st9" width="14.6" height="4.1"/>
		</g>
		<g>
			<path class="st9" d="M1042.5,1041.9c-12,0-21.8-9.8-21.8-21.8c0-12,9.8-21.8,21.8-21.8s21.8,9.8,21.8,21.8
				C1064.3,1032.1,1054.5,1041.9,1042.5,1041.9z M1042.5,1002.4c-9.8,0-17.7,8-17.7,17.7c0,9.8,8,17.7,17.7,17.7
				c9.8,0,17.7-8,17.7-17.7C1060.3,1010.3,1052.3,1002.4,1042.5,1002.4z"/>
			<path class="st9" d="M1036.8,1014.4c0,1.5-1.2,2.7-2.7,2.7s-2.7-1.2-2.7-2.7s1.2-2.7,2.7-2.7
				C1035.6,1011.7,1036.8,1013,1036.8,1014.4z"/>
			<path class="st9" d="M1053,1014.4c0,1.5-1.2,2.7-2.7,2.7s-2.7-1.2-2.7-2.7s1.2-2.7,2.7-2.7S1053,1013,1053,1014.4z"/>
			<path class="st9" d="M1032.2,1024.8h19.9l-6.5,4.5c-1.9,1.3-4.4,1.4-6.3,0.1L1032.2,1024.8z"/>
		</g>
		<g>
			<path class="st9" d="M1135.3,1040.9H1095c-0.4,0-0.6-0.3-0.6-0.6V1000c0-0.4,0.3-0.6,0.6-0.6h40.3c0.4,0,0.6,0.3,0.6,0.6v40.3
				C1135.9,1040.6,1135.6,1040.9,1135.3,1040.9z"/>
			<polygon class="st6" points="1099.3,1027 1130.9,1027 1120.1,1013.2 1113.3,1022.6 1106.7,1016.3 			"/>
		</g>
	</g>
	<g>
		<g>
			<rect x="1775.6" y="1010.1" class="st10" width="30.5" height="30.5"/>
			<rect x="1772.2" y="1001.8" class="st10" width="37.2" height="5.2"/>
			<rect x="1782.7" y="999.3" class="st10" width="16.1" height="5.1"/>
		</g>
		<g>
			<path class="st10" d="M1744.6,1003.7c0,2.3-1.8,4.1-4.1,4.1c-2.3,0-4.1-1.8-4.1-4.1s1.8-4.1,4.1-4.1
				C1742.8,999.6,1744.6,1001.5,1744.6,1003.7z"/>
			<path class="st10" d="M1744.6,1020c0,2.3-1.8,4.1-4.1,4.1c-2.3,0-4.1-1.8-4.1-4.1s1.8-4.1,4.1-4.1
				C1742.8,1015.9,1744.6,1017.7,1744.6,1020z"/>
			<path class="st10" d="M1744.6,1036.2c0,2.3-1.8,4.1-4.1,4.1c-2.3,0-4.1-1.8-4.1-4.1c0-2.3,1.8-4.1,4.1-4.1
				C1742.8,1032.1,1744.6,1033.9,1744.6,1036.2z"/>
		</g>
	</g>
	<rect x="582.5" y="275.8" class="st11" width="1226.9" height="2"/>
	<rect x="582.5" y="348.9" class="st11" width="1226.9" height="2"/>
	<g>
		<path class="st12" d="M589.1,250.7v-16.2h-6v-2.2h14.5v2.2h-6.1v16.2H589.1z"/>
		<path class="st12" d="M596.1,244c0-2.5,0.7-4.3,2.1-5.5c1.1-1,2.5-1.5,4.2-1.5c1.8,0,3.3,0.6,4.5,1.8s1.7,2.8,1.7,5
			c0,1.7-0.3,3.1-0.8,4c-0.5,1-1.3,1.7-2.2,2.3c-1,0.5-2,0.8-3.2,0.8c-1.9,0-3.4-0.6-4.5-1.8C596.7,248,596.1,246.3,596.1,244z
			 M598.5,244c0,1.7,0.4,3,1.1,3.8c0.7,0.8,1.7,1.3,2.8,1.3s2-0.4,2.8-1.3c0.7-0.8,1.1-2.1,1.1-3.9c0-1.6-0.4-2.9-1.1-3.7
			c-0.7-0.8-1.7-1.3-2.8-1.3s-2.1,0.4-2.8,1.3C598.8,241.1,598.5,242.3,598.5,244z"/>
	</g>
	<g>
		<path class="st12" d="M583.6,317.8l2.3-0.2c0.1,0.9,0.4,1.7,0.8,2.3c0.4,0.6,1,1.1,1.8,1.4c0.8,0.4,1.8,0.5,2.8,0.5
			c0.9,0,1.7-0.1,2.5-0.4c0.7-0.3,1.2-0.6,1.6-1.1c0.3-0.5,0.5-1,0.5-1.6s-0.2-1.1-0.5-1.5s-0.9-0.8-1.7-1.1
			c-0.5-0.2-1.6-0.5-3.3-0.9s-2.9-0.8-3.5-1.1c-0.9-0.5-1.5-1-2-1.7c-0.4-0.7-0.6-1.4-0.6-2.3s0.3-1.8,0.8-2.6
			c0.5-0.8,1.3-1.4,2.3-1.8s2.1-0.6,3.4-0.6c1.4,0,2.6,0.2,3.6,0.7c1,0.4,1.8,1.1,2.4,1.9c0.6,0.8,0.9,1.8,0.9,2.9l-2.3,0.2
			c-0.1-1.2-0.5-2-1.3-2.6c-0.7-0.6-1.8-0.9-3.2-0.9c-1.5,0-2.5,0.3-3.2,0.8s-1,1.2-1,1.9c0,0.7,0.2,1.2,0.7,1.6s1.7,0.9,3.7,1.3
			s3.3,0.8,4.1,1.2c1.1,0.5,1.9,1.1,2.4,1.9s0.8,1.6,0.8,2.6s-0.3,1.9-0.8,2.8c-0.6,0.9-1.4,1.5-2.4,2s-2.2,0.7-3.5,0.7
			c-1.7,0-3-0.2-4.2-0.7c-1.1-0.5-2-1.2-2.6-2.2C584,320.1,583.7,319,583.6,317.8z"/>
		<path class="st12" d="M610,323.7v-2c-1,1.5-2.4,2.3-4.2,2.3c-0.8,0-1.5-0.2-2.2-0.5s-1.2-0.7-1.5-1.1c-0.3-0.5-0.6-1-0.7-1.7
			c-0.1-0.4-0.1-1.1-0.1-2.1v-8.2h2.2v7.4c0,1.2,0,2,0.1,2.4c0.1,0.6,0.4,1.1,0.9,1.4s1,0.5,1.7,0.5s1.3-0.2,1.9-0.5
			c0.6-0.3,1-0.8,1.3-1.4c0.2-0.6,0.4-1.5,0.4-2.6v-7.1h2.2v13.3L610,323.7L610,323.7z"/>
		<path class="st12" d="M617.6,323.7h-2.1v-18.3h2.3v6.5c0.9-1.2,2.2-1.8,3.6-1.8c0.8,0,1.6,0.2,2.3,0.5s1.3,0.8,1.8,1.4
			s0.8,1.3,1.1,2.2c0.3,0.8,0.4,1.7,0.4,2.7c0,2.3-0.6,4-1.7,5.3c-1.1,1.2-2.5,1.9-4.1,1.9s-2.8-0.7-3.7-2v1.6H617.6z M617.6,316.9
			c0,1.6,0.2,2.7,0.6,3.5c0.7,1.2,1.7,1.7,2.9,1.7c1,0,1.8-0.4,2.6-1.3c0.7-0.9,1.1-2.1,1.1-3.8c0-1.7-0.3-3-1-3.8s-1.5-1.2-2.5-1.2
			s-1.8,0.4-2.6,1.3C617.9,314.1,617.6,315.3,617.6,316.9z"/>
		<path class="st12" d="M626.9,328.8l0.4-1.9c0.4,0.1,0.8,0.2,1.1,0.2c0.5,0,0.8-0.2,1-0.5s0.3-1.1,0.3-2.3v-14h2.3v14
			c0,1.6-0.2,2.8-0.6,3.4c-0.5,0.8-1.4,1.3-2.7,1.3C628,329.1,627.5,329,626.9,328.8z M629.7,308v-2.6h2.3v2.6H629.7z"/>
		<path class="st12" d="M644.5,319.4l2.3,0.3c-0.4,1.4-1,2.4-2,3.2c-1,0.7-2.3,1.1-3.8,1.1c-1.9,0-3.5-0.6-4.6-1.8
			c-1.1-1.2-1.7-2.9-1.7-5c0-2.2,0.6-4,1.7-5.2c1.1-1.2,2.6-1.8,4.5-1.8c1.8,0,3.2,0.6,4.4,1.8c1.1,1.2,1.7,2.9,1.7,5.1
			c0,0.1,0,0.3,0,0.6h-10c0.1,1.5,0.5,2.6,1.2,3.4s1.7,1.2,2.8,1.2c0.8,0,1.5-0.2,2.1-0.6C643.7,321,644.2,320.4,644.5,319.4z
			 M637.2,315.8h7.4c-0.1-1.1-0.4-2-0.8-2.5c-0.7-0.9-1.6-1.3-2.8-1.3c-1,0-1.9,0.3-2.6,1C637.6,313.7,637.2,314.6,637.2,315.8z"/>
		<path class="st12" d="M658.4,318.8l2.2,0.3c-0.2,1.5-0.9,2.7-1.9,3.6s-2.2,1.3-3.7,1.3c-1.8,0-3.3-0.6-4.4-1.8
			c-1.1-1.2-1.7-2.9-1.7-5.1c0-1.4,0.2-2.7,0.7-3.8c0.5-1.1,1.2-1.9,2.2-2.4s2-0.8,3.2-0.8c1.4,0,2.6,0.4,3.5,1.1s1.5,1.8,1.8,3.1
			l-2.2,0.3c-0.2-0.9-0.6-1.6-1.1-2c-0.5-0.5-1.2-0.7-1.9-0.7c-1.1,0-2.1,0.4-2.8,1.2c-0.7,0.8-1.1,2.1-1.1,3.9s0.3,3.1,1,3.9
			s1.6,1.2,2.7,1.2c0.9,0,1.6-0.3,2.2-0.8C657.8,320.8,658.2,319.9,658.4,318.8z"/>
		<path class="st12" d="M667.4,321.7l0.3,2c-0.6,0.1-1.2,0.2-1.7,0.2c-0.8,0-1.4-0.1-1.9-0.4s-0.8-0.6-1-1s-0.3-1.3-0.3-2.7v-7.6
			h-1.6v-1.8h1.6v-3.3l2.2-1.4v4.6h2.3v1.8H665v7.8c0,0.6,0,1.1,0.1,1.2c0.1,0.2,0.2,0.3,0.4,0.4s0.4,0.2,0.8,0.2
			C666.7,321.8,667,321.7,667.4,321.7z"/>
	</g>
	<rect x="551.4" y="941.1" class="st11" width="1296.8" height="2.1"/>
</g>
<g>
	<path d="M717,324.1h-3.3v-19.2h3.3V324.1z"/>
	<path d="M723.8,309.8l0.1,1.6c0.5-0.6,1.1-1.1,1.8-1.4s1.5-0.5,2.3-0.5c0.7,0,1.3,0.1,1.9,0.3c0.6,0.2,1,0.5,1.4,0.9s0.7,1,0.9,1.6
		s0.3,1.5,0.3,2.5v9.2h-3.2v-9.2c0-0.5-0.1-0.9-0.2-1.2c-0.1-0.3-0.3-0.6-0.5-0.8s-0.5-0.4-0.8-0.5c-0.3-0.1-0.7-0.1-1.1-0.1
		c-0.7,0-1.2,0.2-1.7,0.5c-0.5,0.3-0.9,0.7-1.2,1.3v10.2h-3.2v-14.3H723.8z"/>
	<path d="M739.8,306.4v3.5h2.5v2.4h-2.5v8c0,0.3,0,0.6,0.1,0.8s0.2,0.4,0.3,0.5c0.1,0.1,0.3,0.2,0.5,0.2c0.2,0,0.4,0.1,0.6,0.1
		s0.4,0,0.6,0c0.2,0,0.4-0.1,0.5-0.1v2.5c-0.3,0.1-0.6,0.1-0.9,0.2c-0.3,0.1-0.7,0.1-1.2,0.1c-0.5,0-1-0.1-1.5-0.2
		c-0.5-0.1-0.8-0.4-1.2-0.7c-0.3-0.3-0.6-0.7-0.8-1.2s-0.3-1.1-0.3-1.9v-8.1h-2.3v-2.4h2.3v-3.5H739.8z"/>
	<path d="M751.1,324.4c-1.1,0-2-0.2-2.8-0.5s-1.6-0.8-2.1-1.5s-1-1.3-1.4-2.2s-0.5-1.8-0.5-2.7v-0.5c0-1.1,0.2-2.1,0.5-3.1
		c0.3-0.9,0.8-1.7,1.4-2.3c0.6-0.6,1.3-1.1,2.1-1.5c0.8-0.3,1.6-0.5,2.5-0.5c1,0,1.9,0.2,2.7,0.5c0.8,0.3,1.4,0.8,1.9,1.5
		s0.9,1.4,1.1,2.2s0.4,1.8,0.4,2.8v1.4h-9.3c0,0.6,0.2,1.1,0.3,1.5c0.2,0.5,0.4,0.9,0.8,1.2c0.3,0.3,0.7,0.6,1.2,0.8
		c0.4,0.2,0.9,0.3,1.5,0.3c0.8,0,1.5-0.2,2.1-0.5s1.1-0.8,1.5-1.3l1.7,1.6c-0.2,0.3-0.5,0.7-0.9,1c-0.3,0.3-0.7,0.6-1.2,0.9
		c-0.5,0.2-1,0.5-1.5,0.6C752.4,324.3,751.8,324.4,751.1,324.4z M750.7,312.1c-0.9,0-1.6,0.3-2.1,0.9c-0.5,0.6-0.9,1.5-1,2.6h6.1
		v-0.2c0-0.4-0.1-0.8-0.2-1.2c-0.1-0.4-0.3-0.7-0.5-1c-0.2-0.3-0.5-0.5-0.9-0.7C751.7,312.2,751.2,312.1,750.7,312.1z"/>
	<path d="M766.8,312.8c-0.2,0-0.4-0.1-0.6-0.1c-0.2,0-0.4,0-0.7,0c-0.8,0-1.4,0.1-1.9,0.4s-0.8,0.7-1.1,1.2v9.8h-3.2v-14.3h3.1
		l0.1,1.6c0.4-0.6,0.8-1,1.3-1.4c0.5-0.3,1.2-0.5,1.9-0.5c0.2,0,0.4,0,0.6,0.1c0.2,0,0.4,0.1,0.5,0.1L766.8,312.8z"/>
	<path d="M774.1,320l3-10.2h3.3l-4.9,14.3h-2.8l-5-14.3h3.3L774.1,320z"/>
	<path d="M782.4,306.1c0-0.5,0.2-0.9,0.5-1.2c0.3-0.3,0.8-0.5,1.3-0.5s1,0.2,1.3,0.5s0.5,0.7,0.5,1.2c0,0.5-0.2,0.9-0.5,1.2
		s-0.8,0.5-1.3,0.5s-1-0.2-1.3-0.5C782.5,307,782.4,306.6,782.4,306.1z M785.8,324.1h-3.2v-14.3h3.2V324.1z"/>
	<path d="M795.6,324.4c-1.1,0-2-0.2-2.8-0.5s-1.6-0.8-2.1-1.5s-1-1.3-1.4-2.2s-0.5-1.8-0.5-2.7v-0.5c0-1.1,0.2-2.1,0.5-3.1
		c0.3-0.9,0.8-1.7,1.4-2.3c0.6-0.6,1.3-1.1,2.1-1.5c0.8-0.3,1.6-0.5,2.5-0.5c1,0,1.9,0.2,2.7,0.5c0.8,0.3,1.4,0.8,1.9,1.5
		s0.9,1.4,1.1,2.2s0.4,1.8,0.4,2.8v1.4H792c0,0.6,0.2,1.1,0.3,1.5c0.2,0.5,0.4,0.9,0.8,1.2c0.3,0.3,0.7,0.6,1.2,0.8
		c0.4,0.2,0.9,0.3,1.5,0.3c0.8,0,1.5-0.2,2.1-0.5s1.1-0.8,1.5-1.3l1.7,1.6c-0.2,0.3-0.5,0.7-0.9,1c-0.3,0.3-0.7,0.6-1.2,0.9
		c-0.5,0.2-1,0.5-1.5,0.6C796.9,324.3,796.3,324.4,795.6,324.4z M795.2,312.1c-0.9,0-1.6,0.3-2.1,0.9c-0.5,0.6-0.9,1.5-1,2.6h6.1
		v-0.2c0-0.4-0.1-0.8-0.2-1.2c-0.1-0.4-0.3-0.7-0.5-1c-0.2-0.3-0.5-0.5-0.9-0.7C796.1,312.2,795.7,312.1,795.2,312.1z"/>
	<path d="M816.3,319.7l2.3-9.8h3.1l-3.9,14.3h-2.6l-3.1-9.8l-3,9.8h-2.6l-3.9-14.3h3.1l2.3,9.7l2.9-9.7h2.4L816.3,319.7z"/>
	<path d="M837.9,316.7h-3.7v7.4h-3.3v-19.2h6.8c1.1,0,2.1,0.1,2.9,0.4c0.9,0.2,1.6,0.6,2.2,1.1c0.6,0.5,1,1.1,1.4,1.8
		s0.5,1.6,0.5,2.5c0,1.3-0.3,2.4-0.9,3.2c-0.6,0.9-1.5,1.5-2.6,2l4.3,8v0.2h-3.6L837.9,316.7z M834.2,314h3.4c0.6,0,1.1-0.1,1.6-0.2
		s0.8-0.4,1.1-0.7s0.5-0.6,0.7-1s0.2-0.8,0.2-1.3c0-0.5-0.1-0.9-0.2-1.3c-0.1-0.4-0.4-0.7-0.6-1c-0.3-0.3-0.7-0.5-1.1-0.7
		c-0.5-0.2-1-0.2-1.6-0.2h-3.4V314z"/>
	<path d="M853.7,324.4c-1.1,0-2-0.2-2.8-0.5s-1.6-0.8-2.1-1.5s-1-1.3-1.4-2.2s-0.5-1.8-0.5-2.7v-0.5c0-1.1,0.2-2.1,0.5-3.1
		c0.3-0.9,0.8-1.7,1.4-2.3c0.6-0.6,1.3-1.1,2.1-1.5c0.8-0.3,1.6-0.5,2.5-0.5c1,0,1.9,0.2,2.7,0.5c0.8,0.3,1.4,0.8,1.9,1.5
		s0.9,1.4,1.1,2.2s0.4,1.8,0.4,2.8v1.4h-9.3c0,0.6,0.2,1.1,0.3,1.5c0.2,0.5,0.4,0.9,0.8,1.2c0.3,0.3,0.7,0.6,1.2,0.8
		c0.4,0.2,0.9,0.3,1.5,0.3c0.8,0,1.5-0.2,2.1-0.5s1.1-0.8,1.5-1.3l1.7,1.6c-0.2,0.3-0.5,0.7-0.9,1c-0.3,0.3-0.7,0.6-1.2,0.9
		c-0.5,0.2-1,0.5-1.5,0.6C855,324.3,854.4,324.4,853.7,324.4z M853.3,312.1c-0.9,0-1.6,0.3-2.1,0.9c-0.5,0.6-0.9,1.5-1,2.6h6.1v-0.2
		c0-0.4-0.1-0.8-0.2-1.2c-0.1-0.4-0.3-0.7-0.5-1c-0.2-0.3-0.5-0.5-0.9-0.7C854.3,312.2,853.8,312.1,853.3,312.1z"/>
	<path d="M861.3,316.8c0-1.1,0.1-2.1,0.4-3s0.6-1.7,1.1-2.3s1.1-1.1,1.8-1.5s1.5-0.5,2.4-0.5c0.8,0,1.6,0.1,2.2,0.4s1.2,0.7,1.6,1.2
		l0.2-1.4h2.8v19.7h-3.2v-6.7c-0.4,0.5-1,0.8-1.6,1.1s-1.3,0.4-2.1,0.4c-0.9,0-1.7-0.2-2.4-0.5c-0.7-0.4-1.3-0.9-1.8-1.5
		c-0.5-0.6-0.9-1.4-1.1-2.3c-0.3-0.9-0.4-1.8-0.4-2.9V316.8z M864.5,317.1c0,0.6,0.1,1.2,0.2,1.8c0.1,0.6,0.3,1.1,0.6,1.5
		s0.6,0.8,1,1c0.4,0.3,0.9,0.4,1.5,0.4c0.7,0,1.3-0.1,1.7-0.4s0.8-0.7,1.1-1.2v-6.5c-0.3-0.5-0.7-0.9-1.1-1.1s-1-0.4-1.7-0.4
		c-0.6,0-1.1,0.1-1.5,0.4c-0.4,0.3-0.8,0.6-1,1c-0.3,0.4-0.5,0.9-0.6,1.5s-0.2,1.2-0.2,1.8V317.1z"/>
	<path d="M885.9,322.7c-0.4,0.5-1,0.9-1.7,1.2s-1.4,0.4-2.3,0.4c-0.7,0-1.3-0.1-1.9-0.3c-0.6-0.2-1.1-0.5-1.5-0.9s-0.7-1-1-1.6
		c-0.2-0.7-0.3-1.5-0.3-2.4v-9.2h3.2v9.3c0,0.5,0.1,0.9,0.2,1.3c0.1,0.3,0.3,0.6,0.5,0.8c0.2,0.2,0.4,0.4,0.7,0.4s0.6,0.1,0.9,0.1
		c0.8,0,1.5-0.1,2-0.4s0.9-0.7,1.1-1.2v-10.2h3.2v14.3h-3L885.9,322.7z"/>
	<path d="M898.5,324.4c-1.1,0-2-0.2-2.8-0.5s-1.6-0.8-2.1-1.5s-1-1.3-1.4-2.2s-0.5-1.8-0.5-2.7v-0.5c0-1.1,0.2-2.1,0.5-3.1
		c0.3-0.9,0.8-1.7,1.4-2.3c0.6-0.6,1.3-1.1,2.1-1.5c0.8-0.3,1.6-0.5,2.5-0.5c1,0,1.9,0.2,2.7,0.5c0.8,0.3,1.4,0.8,1.9,1.5
		s0.9,1.4,1.1,2.2s0.4,1.8,0.4,2.8v1.4h-9.3c0,0.6,0.2,1.1,0.3,1.5c0.2,0.5,0.4,0.9,0.8,1.2c0.3,0.3,0.7,0.6,1.2,0.8
		c0.4,0.2,0.9,0.3,1.5,0.3c0.8,0,1.5-0.2,2.1-0.5s1.1-0.8,1.5-1.3l1.7,1.6c-0.2,0.3-0.5,0.7-0.9,1c-0.3,0.3-0.7,0.6-1.2,0.9
		c-0.5,0.2-1,0.5-1.5,0.6C899.9,324.3,899.2,324.4,898.5,324.4z M898.1,312.1c-0.9,0-1.6,0.3-2.1,0.9c-0.5,0.6-0.9,1.5-1,2.6h6.1
		v-0.2c0-0.4-0.1-0.8-0.2-1.2c-0.1-0.4-0.3-0.7-0.5-1c-0.2-0.3-0.5-0.5-0.9-0.7C899.1,312.2,898.7,312.1,898.1,312.1z"/>
	<path d="M914.7,320.2c0-0.2,0-0.4-0.1-0.6c-0.1-0.2-0.2-0.4-0.4-0.6c-0.2-0.2-0.5-0.3-0.9-0.5c-0.4-0.1-0.9-0.3-1.6-0.4
		c-0.8-0.2-1.5-0.4-2.1-0.6s-1.2-0.5-1.6-0.9s-0.8-0.7-1-1.2c-0.2-0.5-0.4-1-0.4-1.6c0-0.6,0.1-1.1,0.4-1.7s0.6-1,1.1-1.4
		s1.1-0.7,1.7-0.9s1.4-0.3,2.3-0.3c0.9,0,1.7,0.1,2.4,0.3c0.7,0.2,1.3,0.6,1.8,1c0.5,0.4,0.9,0.9,1.1,1.4c0.3,0.6,0.4,1.2,0.4,1.8
		h-3.2c0-0.3-0.1-0.5-0.2-0.8s-0.3-0.5-0.5-0.7s-0.5-0.4-0.8-0.5c-0.3-0.1-0.7-0.2-1.1-0.2c-0.4,0-0.8,0.1-1.1,0.2
		c-0.3,0.1-0.5,0.2-0.7,0.4c-0.2,0.2-0.3,0.4-0.4,0.6s-0.1,0.4-0.1,0.7s0,0.4,0.1,0.6s0.2,0.4,0.5,0.5c0.2,0.1,0.5,0.3,0.9,0.4
		c0.4,0.1,0.9,0.3,1.4,0.4c0.8,0.2,1.6,0.4,2.2,0.6c0.7,0.2,1.2,0.5,1.7,0.9c0.5,0.3,0.8,0.7,1,1.2s0.4,1,0.4,1.7
		c0,0.6-0.1,1.2-0.4,1.7s-0.7,1-1.2,1.4c-0.5,0.4-1.1,0.7-1.8,0.9s-1.5,0.3-2.4,0.3c-1,0-1.8-0.1-2.6-0.4c-0.8-0.3-1.4-0.6-1.9-1.1
		s-0.9-1-1.2-1.5c-0.3-0.6-0.4-1.1-0.4-1.7h3.1c0,0.4,0.1,0.8,0.3,1.1s0.4,0.5,0.7,0.7s0.6,0.3,0.9,0.4s0.7,0.1,1.1,0.1
		c0.8,0,1.5-0.2,1.9-0.5C914.5,321.2,914.7,320.7,914.7,320.2z"/>
	<path d="M924.7,306.4v3.5h2.5v2.4h-2.5v8c0,0.3,0,0.6,0.1,0.8s0.2,0.4,0.3,0.5c0.1,0.1,0.3,0.2,0.5,0.2c0.2,0,0.4,0.1,0.6,0.1
		s0.4,0,0.6,0c0.2,0,0.4-0.1,0.5-0.1v2.5c-0.3,0.1-0.6,0.1-0.9,0.2c-0.3,0.1-0.7,0.1-1.2,0.1c-0.5,0-1-0.1-1.5-0.2
		c-0.5-0.1-0.8-0.4-1.2-0.7c-0.3-0.3-0.6-0.7-0.8-1.2s-0.3-1.1-0.3-1.9v-8.1h-2.3v-2.4h2.3v-3.5H924.7z"/>
</g>
<g>
	<path d="M663.2,246c0-0.4-0.1-0.7-0.2-1c-0.1-0.3-0.3-0.6-0.6-0.8c-0.3-0.3-0.7-0.5-1.3-0.7c-0.5-0.2-1.2-0.5-2-0.7
		c-0.9-0.3-1.8-0.6-2.5-0.9s-1.4-0.8-2-1.2c-0.6-0.5-1-1-1.3-1.6s-0.5-1.3-0.5-2.1c0-0.8,0.2-1.5,0.5-2.1c0.3-0.7,0.8-1.2,1.4-1.7
		s1.3-0.8,2.1-1.1s1.8-0.4,2.8-0.4c1.1,0,2.1,0.2,2.9,0.5c0.9,0.3,1.6,0.7,2.2,1.3c0.6,0.5,1,1.2,1.4,1.9c0.3,0.7,0.5,1.5,0.5,2.3
		h-3.3c0-0.5-0.1-0.9-0.2-1.3c-0.1-0.4-0.4-0.7-0.7-1s-0.7-0.5-1.1-0.7s-1-0.2-1.6-0.2c-0.6,0-1.1,0.1-1.5,0.2s-0.8,0.3-1.1,0.6
		s-0.5,0.5-0.6,0.8s-0.2,0.7-0.2,1.1c0,0.7,0.3,1.3,1,1.8c0.7,0.5,1.7,0.9,3.1,1.3c1.1,0.3,2,0.7,2.8,1.1s1.4,0.8,2,1.3
		c0.5,0.5,0.9,1,1.2,1.6s0.4,1.3,0.4,2.1c0,0.8-0.2,1.5-0.5,2.2c-0.3,0.6-0.8,1.2-1.4,1.6c-0.6,0.5-1.3,0.8-2.2,1
		c-0.8,0.2-1.8,0.4-2.8,0.4c-0.9,0-1.8-0.1-2.7-0.4c-0.9-0.2-1.7-0.6-2.4-1.1c-0.7-0.5-1.3-1.1-1.7-1.9c-0.4-0.8-0.7-1.6-0.7-2.7
		h3.3c0,0.6,0.1,1.1,0.3,1.6c0.2,0.4,0.5,0.8,0.9,1.1c0.4,0.3,0.8,0.5,1.3,0.6c0.5,0.1,1.1,0.2,1.6,0.2c1.2,0,2-0.2,2.6-0.7
		C662.9,247.4,663.2,246.7,663.2,246z"/>
	<path d="M677.7,250.9c-0.1-0.2-0.2-0.4-0.2-0.6c-0.1-0.2-0.1-0.5-0.2-0.7c-0.2,0.2-0.4,0.4-0.7,0.6s-0.5,0.4-0.9,0.5
		c-0.3,0.1-0.7,0.3-1,0.3c-0.4,0.1-0.8,0.1-1.2,0.1c-0.7,0-1.4-0.1-2-0.3c-0.6-0.2-1.1-0.5-1.5-0.9c-0.4-0.4-0.8-0.8-1-1.4
		s-0.4-1.1-0.4-1.7c0-0.8,0.1-1.4,0.4-2s0.7-1.1,1.3-1.5s1.2-0.7,2-0.9c0.8-0.2,1.7-0.3,2.7-0.3h2v-0.9c0-0.7-0.2-1.3-0.6-1.8
		c-0.4-0.4-1-0.7-1.9-0.7c-0.4,0-0.7,0.1-1,0.2s-0.6,0.2-0.8,0.4c-0.2,0.2-0.4,0.4-0.5,0.6c-0.1,0.2-0.2,0.5-0.2,0.8H669
		c0-0.6,0.1-1.1,0.4-1.6c0.3-0.5,0.7-1,1.2-1.4c0.5-0.4,1.1-0.7,1.9-1c0.7-0.2,1.5-0.4,2.4-0.4c0.8,0,1.5,0.1,2.2,0.3
		c0.7,0.2,1.3,0.5,1.8,0.9c0.5,0.4,0.9,0.9,1.1,1.5c0.3,0.6,0.4,1.3,0.4,2.1v6.3c0,1.3,0.2,2.3,0.5,3.1v0.2H677.7z M674.2,248.6
		c0.4,0,0.7,0,1-0.1c0.3-0.1,0.6-0.2,0.9-0.4c0.3-0.2,0.5-0.3,0.7-0.5c0.2-0.2,0.3-0.4,0.5-0.6v-2.7h-1.7c-1.2,0-2.1,0.2-2.7,0.6
		s-0.9,1-0.9,1.8c0,0.3,0,0.6,0.1,0.8s0.2,0.5,0.4,0.6c0.2,0.2,0.4,0.3,0.7,0.4C673.5,248.5,673.8,248.6,674.2,248.6z"/>
	<path d="M686.8,236.6l0.1,1.5c0.5-0.6,1.1-1,1.7-1.3s1.5-0.5,2.4-0.5c0.9,0,1.6,0.2,2.3,0.5c0.7,0.3,1.2,0.9,1.6,1.7
		c0.5-0.7,1.1-1.2,1.8-1.6c0.7-0.4,1.6-0.6,2.6-0.6c0.7,0,1.4,0.1,2,0.3c0.6,0.2,1.1,0.5,1.5,0.9c0.4,0.4,0.7,1,0.9,1.6
		c0.2,0.7,0.3,1.5,0.3,2.4v9.2h-3.2v-9.3c0-0.5-0.1-1-0.2-1.3c-0.1-0.3-0.3-0.6-0.5-0.8c-0.2-0.2-0.5-0.3-0.8-0.4
		c-0.3-0.1-0.7-0.1-1.1-0.1c-0.7,0-1.3,0.2-1.8,0.6c-0.5,0.4-0.8,0.9-1,1.5c0,0,0,0.1,0,0.1s0,0.1,0,0.1v9.5h-3.2v-9.2
		c0-0.5-0.1-0.9-0.2-1.3c-0.1-0.3-0.3-0.6-0.5-0.8c-0.2-0.2-0.5-0.4-0.8-0.5c-0.3-0.1-0.7-0.1-1.1-0.1c-0.7,0-1.3,0.1-1.7,0.4
		s-0.8,0.7-1,1.1v10.3h-3.2v-14.3H686.8z"/>
	<path d="M715.8,250.9c-0.1-0.2-0.2-0.4-0.2-0.6c-0.1-0.2-0.1-0.5-0.2-0.7c-0.2,0.2-0.4,0.4-0.7,0.6s-0.5,0.4-0.9,0.5
		c-0.3,0.1-0.7,0.3-1,0.3c-0.4,0.1-0.8,0.1-1.2,0.1c-0.7,0-1.4-0.1-2-0.3c-0.6-0.2-1.1-0.5-1.5-0.9c-0.4-0.4-0.8-0.8-1-1.4
		s-0.4-1.1-0.4-1.7c0-0.8,0.1-1.4,0.4-2s0.7-1.1,1.3-1.5s1.2-0.7,2-0.9c0.8-0.2,1.7-0.3,2.7-0.3h2v-0.9c0-0.7-0.2-1.3-0.6-1.8
		c-0.4-0.4-1-0.7-1.9-0.7c-0.4,0-0.7,0.1-1,0.2s-0.6,0.2-0.8,0.4c-0.2,0.2-0.4,0.4-0.5,0.6c-0.1,0.2-0.2,0.5-0.2,0.8h-3.2
		c0-0.6,0.1-1.1,0.4-1.6c0.3-0.5,0.7-1,1.2-1.4c0.5-0.4,1.1-0.7,1.9-1c0.7-0.2,1.5-0.4,2.4-0.4c0.8,0,1.5,0.1,2.2,0.3
		c0.7,0.2,1.3,0.5,1.8,0.9c0.5,0.4,0.9,0.9,1.1,1.5c0.3,0.6,0.4,1.3,0.4,2.1v6.3c0,1.3,0.2,2.3,0.5,3.1v0.2H715.8z M712.3,248.6
		c0.4,0,0.7,0,1-0.1c0.3-0.1,0.6-0.2,0.9-0.4c0.3-0.2,0.5-0.3,0.7-0.5c0.2-0.2,0.3-0.4,0.5-0.6v-2.7h-1.7c-1.2,0-2.1,0.2-2.7,0.6
		s-0.9,1-0.9,1.8c0,0.3,0,0.6,0.1,0.8s0.2,0.5,0.4,0.6c0.2,0.2,0.4,0.3,0.7,0.4C711.6,248.5,711.9,248.6,712.3,248.6z"/>
	<path d="M725.9,233.2v3.5h2.5v2.4h-2.5v8c0,0.3,0,0.6,0.1,0.8s0.2,0.4,0.3,0.5c0.1,0.1,0.3,0.2,0.5,0.2c0.2,0,0.4,0.1,0.6,0.1
		s0.4,0,0.6,0c0.2,0,0.4-0.1,0.5-0.1v2.5c-0.3,0.1-0.6,0.1-0.9,0.2c-0.3,0.1-0.7,0.1-1.2,0.1c-0.5,0-1-0.1-1.5-0.2
		c-0.5-0.1-0.8-0.4-1.2-0.7c-0.3-0.3-0.6-0.7-0.8-1.2s-0.3-1.1-0.3-1.9V239h-2.3v-2.4h2.3v-3.5H725.9z"/>
	<path d="M734,238.2c0.5-0.6,1.1-1,1.7-1.3s1.4-0.5,2.2-0.5c0.7,0,1.3,0.1,1.9,0.3s1.1,0.5,1.5,0.9s0.7,1,0.9,1.7s0.3,1.5,0.3,2.5
		v9.2h-3.2v-9.2c0-1-0.2-1.7-0.6-2.1c-0.4-0.4-1.1-0.6-1.9-0.6c-0.7,0-1.2,0.2-1.7,0.5s-0.9,0.7-1.2,1.3v10.2h-3.2v-20.2h3.2V238.2z
		"/>
	<path d="M754.4,250.9c-0.1-0.2-0.2-0.4-0.2-0.6c-0.1-0.2-0.1-0.5-0.2-0.7c-0.2,0.2-0.4,0.4-0.7,0.6s-0.5,0.4-0.9,0.5
		c-0.3,0.1-0.7,0.3-1,0.3c-0.4,0.1-0.8,0.1-1.2,0.1c-0.7,0-1.4-0.1-2-0.3c-0.6-0.2-1.1-0.5-1.5-0.9c-0.4-0.4-0.8-0.8-1-1.4
		s-0.4-1.1-0.4-1.7c0-0.8,0.1-1.4,0.4-2s0.7-1.1,1.3-1.5s1.2-0.7,2-0.9c0.8-0.2,1.7-0.3,2.7-0.3h2v-0.9c0-0.7-0.2-1.3-0.6-1.8
		c-0.4-0.4-1-0.7-1.9-0.7c-0.4,0-0.7,0.1-1,0.2s-0.6,0.2-0.8,0.4c-0.2,0.2-0.4,0.4-0.5,0.6c-0.1,0.2-0.2,0.5-0.2,0.8h-3.2
		c0-0.6,0.1-1.1,0.4-1.6c0.3-0.5,0.7-1,1.2-1.4c0.5-0.4,1.1-0.7,1.9-1c0.7-0.2,1.5-0.4,2.4-0.4c0.8,0,1.5,0.1,2.2,0.3
		c0.7,0.2,1.3,0.5,1.8,0.9c0.5,0.4,0.9,0.9,1.1,1.5c0.3,0.6,0.4,1.3,0.4,2.1v6.3c0,1.3,0.2,2.3,0.5,3.1v0.2H754.4z M750.9,248.6
		c0.4,0,0.7,0,1-0.1c0.3-0.1,0.6-0.2,0.9-0.4c0.3-0.2,0.5-0.3,0.7-0.5c0.2-0.2,0.3-0.4,0.5-0.6v-2.7h-1.7c-1.2,0-2.1,0.2-2.7,0.6
		s-0.9,1-0.9,1.8c0,0.3,0,0.6,0.1,0.8s0.2,0.5,0.4,0.6c0.2,0.2,0.4,0.3,0.7,0.4C750.2,248.5,750.5,248.6,750.9,248.6z"/>
	<path d="M760.8,250.9v-19.2h6.6c1,0,2,0.1,2.8,0.3c0.8,0.2,1.5,0.5,2.1,0.9s1,1,1.3,1.6c0.3,0.7,0.5,1.4,0.5,2.3
		c0,0.9-0.2,1.7-0.7,2.4s-1.2,1.2-2.1,1.6c0.6,0.1,1,0.4,1.4,0.7c0.4,0.3,0.7,0.6,1,1c0.3,0.4,0.5,0.8,0.6,1.3s0.2,0.9,0.2,1.5
		c0,0.9-0.2,1.7-0.5,2.4c-0.3,0.7-0.7,1.3-1.3,1.8c-0.6,0.5-1.3,0.8-2.1,1.1s-1.8,0.4-2.8,0.4H760.8z M764.1,239.8h3.3
		c1,0,1.8-0.2,2.4-0.7c0.6-0.5,0.9-1.1,0.9-2c0-0.9-0.3-1.6-0.8-2.1c-0.5-0.4-1.4-0.6-2.5-0.6h-3.2V239.8z M764.1,242.2v6h3.7
		c0.5,0,1-0.1,1.4-0.2s0.8-0.3,1-0.6s0.5-0.6,0.6-0.9s0.2-0.8,0.2-1.2c0-0.9-0.3-1.7-0.8-2.2s-1.3-0.8-2.4-0.8H764.1z"/>
	<path d="M785,239.6c-0.2,0-0.4-0.1-0.6-0.1c-0.2,0-0.4,0-0.7,0c-0.8,0-1.4,0.1-1.9,0.4s-0.8,0.7-1.1,1.2v9.8h-3.2v-14.3h3.1
		l0.1,1.6c0.4-0.6,0.8-1,1.3-1.4c0.5-0.3,1.2-0.5,1.9-0.5c0.2,0,0.4,0,0.6,0.1c0.2,0,0.4,0.1,0.5,0.1L785,239.6z"/>
	<path d="M785.9,243.6c0-1,0.2-2,0.5-2.9c0.3-0.9,0.7-1.7,1.3-2.3c0.6-0.7,1.3-1.2,2.1-1.5s1.7-0.6,2.8-0.6c1,0,2,0.2,2.8,0.6
		s1.5,0.9,2.1,1.5c0.6,0.7,1,1.4,1.3,2.3c0.3,0.9,0.4,1.8,0.4,2.9v0.3c0,1-0.1,2-0.4,2.9s-0.7,1.7-1.3,2.3c-0.6,0.6-1.3,1.2-2.1,1.5
		c-0.8,0.4-1.8,0.5-2.8,0.5c-1,0-2-0.2-2.8-0.5c-0.8-0.4-1.5-0.9-2.1-1.5c-0.6-0.6-1-1.4-1.3-2.3c-0.3-0.9-0.5-1.9-0.5-2.9V243.6z
		 M789.1,243.9c0,0.6,0.1,1.2,0.2,1.8s0.3,1.1,0.6,1.5c0.3,0.4,0.6,0.8,1.1,1c0.4,0.2,1,0.4,1.5,0.4c0.6,0,1.1-0.1,1.5-0.4
		c0.4-0.2,0.8-0.6,1.1-1c0.3-0.4,0.5-0.9,0.6-1.5s0.2-1.2,0.2-1.8v-0.3c0-0.6-0.1-1.2-0.2-1.8c-0.1-0.6-0.3-1.1-0.6-1.5
		c-0.3-0.4-0.6-0.8-1.1-1c-0.4-0.3-1-0.4-1.5-0.4s-1.1,0.1-1.5,0.4c-0.4,0.3-0.8,0.6-1.1,1c-0.3,0.4-0.5,0.9-0.6,1.5
		c-0.1,0.6-0.2,1.2-0.2,1.8V243.9z"/>
	<path d="M801.3,243.6c0-1,0.2-2,0.5-2.9c0.3-0.9,0.7-1.7,1.3-2.3c0.6-0.7,1.3-1.2,2.1-1.5s1.7-0.6,2.8-0.6c1,0,2,0.2,2.8,0.6
		s1.5,0.9,2.1,1.5c0.6,0.7,1,1.4,1.3,2.3c0.3,0.9,0.4,1.8,0.4,2.9v0.3c0,1-0.1,2-0.4,2.9s-0.7,1.7-1.3,2.3c-0.6,0.6-1.3,1.2-2.1,1.5
		c-0.8,0.4-1.8,0.5-2.8,0.5c-1,0-2-0.2-2.8-0.5c-0.8-0.4-1.5-0.9-2.1-1.5c-0.6-0.6-1-1.4-1.3-2.3c-0.3-0.9-0.5-1.9-0.5-2.9V243.6z
		 M804.5,243.9c0,0.6,0.1,1.2,0.2,1.8s0.3,1.1,0.6,1.5c0.3,0.4,0.6,0.8,1.1,1c0.4,0.2,1,0.4,1.5,0.4c0.6,0,1.1-0.1,1.5-0.4
		c0.4-0.2,0.8-0.6,1.1-1c0.3-0.4,0.5-0.9,0.6-1.5s0.2-1.2,0.2-1.8v-0.3c0-0.6-0.1-1.2-0.2-1.8c-0.1-0.6-0.3-1.1-0.6-1.5
		c-0.3-0.4-0.6-0.8-1.1-1c-0.4-0.3-1-0.4-1.5-0.4s-1.1,0.1-1.5,0.4c-0.4,0.3-0.8,0.6-1.1,1c-0.3,0.4-0.5,0.9-0.6,1.5
		c-0.1,0.6-0.2,1.2-0.2,1.8V243.9z"/>
	<path d="M821.9,244.8l-1.4,1.5v4.7h-3.2v-20.2h3.2v11.7l1-1.3l3.9-4.4h3.8l-5.3,5.9l5.9,8.3h-3.7L821.9,244.8z"/>
	<path d="M839.4,247c0-0.2,0-0.4-0.1-0.6c-0.1-0.2-0.2-0.4-0.4-0.6c-0.2-0.2-0.5-0.3-0.9-0.5c-0.4-0.1-0.9-0.3-1.6-0.4
		c-0.8-0.2-1.5-0.4-2.1-0.6s-1.2-0.5-1.6-0.9s-0.8-0.7-1-1.2c-0.2-0.5-0.4-1-0.4-1.6c0-0.6,0.1-1.1,0.4-1.7s0.6-1,1.1-1.4
		s1.1-0.7,1.7-0.9s1.4-0.3,2.3-0.3c0.9,0,1.7,0.1,2.4,0.3c0.7,0.2,1.3,0.6,1.8,1c0.5,0.4,0.9,0.9,1.1,1.4c0.3,0.6,0.4,1.2,0.4,1.8
		h-3.2c0-0.3-0.1-0.5-0.2-0.8s-0.3-0.5-0.5-0.7s-0.5-0.4-0.8-0.5c-0.3-0.1-0.7-0.2-1.1-0.2c-0.4,0-0.8,0.1-1.1,0.2
		c-0.3,0.1-0.5,0.2-0.7,0.4c-0.2,0.2-0.3,0.4-0.4,0.6s-0.1,0.4-0.1,0.7s0,0.4,0.1,0.6s0.2,0.4,0.5,0.5c0.2,0.1,0.5,0.3,0.9,0.4
		c0.4,0.1,0.9,0.3,1.4,0.4c0.8,0.2,1.6,0.4,2.2,0.6c0.7,0.2,1.2,0.5,1.7,0.9c0.5,0.3,0.8,0.7,1,1.2s0.4,1,0.4,1.7
		c0,0.6-0.1,1.2-0.4,1.7s-0.7,1-1.2,1.4c-0.5,0.4-1.1,0.7-1.8,0.9s-1.5,0.3-2.4,0.3c-1,0-1.8-0.1-2.6-0.4c-0.8-0.3-1.4-0.6-1.9-1.1
		s-0.9-1-1.2-1.5c-0.3-0.6-0.4-1.1-0.4-1.7h3.1c0,0.4,0.1,0.8,0.3,1.1s0.4,0.5,0.7,0.7s0.6,0.3,0.9,0.4s0.7,0.1,1.1,0.1
		c0.8,0,1.5-0.2,1.9-0.5C839.1,248,839.4,247.5,839.4,247z"/>
	<path d="M866.6,244.1c0,0.6-0.1,1.1-0.2,1.7s-0.2,1.1-0.4,1.6s-0.4,1-0.7,1.5c-0.3,0.5-0.6,0.9-1.1,1.2c-0.4,0.3-0.9,0.6-1.4,0.8
		c-0.5,0.2-1.1,0.3-1.8,0.3c-0.8,0-1.5-0.2-2-0.5c-0.5-0.4-0.9-0.9-1.2-1.5c-0.4,0.7-1,1.2-1.6,1.5c-0.6,0.3-1.2,0.5-1.9,0.5
		s-1.2-0.1-1.7-0.4c-0.5-0.3-0.9-0.7-1.2-1.2s-0.5-1.1-0.7-1.8c-0.1-0.7-0.2-1.5-0.1-2.4c0.1-1.1,0.4-2.2,0.7-3.1s0.8-1.7,1.3-2.4
		c0.5-0.6,1.1-1.1,1.8-1.5s1.4-0.5,2.1-0.5c0.5,0,0.9,0,1.3,0.1s0.7,0.2,1,0.3s0.6,0.3,0.9,0.5c0.3,0.2,0.5,0.4,0.8,0.5l-0.7,7.4
		c-0.1,0.5,0,1,0,1.3c0.1,0.3,0.2,0.6,0.3,0.8c0.2,0.2,0.3,0.3,0.5,0.4c0.2,0.1,0.4,0.1,0.6,0.1c0.5,0,0.9-0.1,1.3-0.4
		s0.7-0.6,1-1.1s0.5-1,0.6-1.6s0.2-1.3,0.3-2c0.1-1.5,0-2.9-0.3-4.2c-0.3-1.2-0.8-2.3-1.5-3.2c-0.7-0.9-1.5-1.5-2.6-2
		s-2.3-0.7-3.8-0.7c-1.4,0-2.6,0.3-3.7,0.8s-2,1.3-2.8,2.2s-1.4,2.1-1.8,3.4c-0.4,1.3-0.7,2.7-0.8,4.3c-0.1,1.6,0,3.1,0.4,4.3
		c0.3,1.3,0.9,2.3,1.5,3.2c0.7,0.9,1.6,1.5,2.6,2s2.3,0.7,3.6,0.7c0.4,0,0.8,0,1.2-0.1c0.4,0,0.8-0.1,1.2-0.2
		c0.4-0.1,0.7-0.2,1.1-0.3c0.3-0.1,0.7-0.3,0.9-0.4l0.5,1.8c-0.3,0.2-0.7,0.4-1.1,0.5c-0.4,0.1-0.8,0.3-1.2,0.4
		c-0.4,0.1-0.9,0.2-1.3,0.2c-0.5,0-0.9,0.1-1.3,0.1c-1.7,0-3.2-0.3-4.6-0.8c-1.3-0.5-2.4-1.3-3.3-2.4c-0.9-1-1.6-2.3-2-3.8
		c-0.4-1.5-0.6-3.2-0.5-5.1c0.1-1.2,0.2-2.3,0.5-3.4s0.6-2.1,1.1-3c0.5-0.9,1-1.8,1.7-2.5c0.7-0.8,1.4-1.4,2.2-1.9
		c0.8-0.5,1.7-0.9,2.7-1.2s2-0.4,3.2-0.4c1.7,0,3.2,0.3,4.5,0.9c1.3,0.6,2.4,1.4,3.3,2.4c0.9,1,1.5,2.3,1.9,3.8
		S866.6,242.3,866.6,244.1z M853.3,245.3c-0.1,1.2,0,2.1,0.3,2.7c0.3,0.6,0.8,0.9,1.6,0.9c0.2,0,0.4,0,0.6-0.1s0.4-0.2,0.6-0.4
		s0.4-0.4,0.6-0.7c0.2-0.3,0.4-0.7,0.5-1.1l0.6-6.5c-0.2-0.1-0.4-0.1-0.6-0.2c-0.2,0-0.4-0.1-0.7-0.1c-1,0-1.8,0.5-2.4,1.4
		C853.8,242.2,853.4,243.5,853.3,245.3z"/>
	<path d="M875.7,251.2c-1.1,0-2-0.2-2.8-0.5s-1.6-0.8-2.1-1.5s-1-1.3-1.4-2.2s-0.5-1.8-0.5-2.7v-0.5c0-1.1,0.2-2.1,0.5-3.1
		c0.3-0.9,0.8-1.7,1.4-2.3c0.6-0.6,1.3-1.1,2.1-1.5c0.8-0.3,1.6-0.5,2.5-0.5c1,0,1.9,0.2,2.7,0.5c0.8,0.3,1.4,0.8,1.9,1.5
		s0.9,1.4,1.1,2.2s0.4,1.8,0.4,2.8v1.4h-9.3c0,0.6,0.2,1.1,0.3,1.5c0.2,0.5,0.4,0.9,0.8,1.2c0.3,0.3,0.7,0.6,1.2,0.8
		c0.4,0.2,0.9,0.3,1.5,0.3c0.8,0,1.5-0.2,2.1-0.5s1.1-0.8,1.5-1.3l1.7,1.6c-0.2,0.3-0.5,0.7-0.9,1c-0.3,0.3-0.7,0.6-1.2,0.9
		c-0.5,0.2-1,0.5-1.5,0.6C877.1,251.1,876.4,251.2,875.7,251.2z M875.3,238.9c-0.9,0-1.6,0.3-2.1,0.9c-0.5,0.6-0.9,1.5-1,2.6h6.1
		v-0.2c0-0.4-0.1-0.8-0.2-1.2c-0.1-0.4-0.3-0.7-0.5-1c-0.2-0.3-0.5-0.5-0.9-0.7C876.3,239,875.9,238.9,875.3,238.9z"/>
	<path d="M886.9,236.6l0.1,1.5c0.5-0.6,1.1-1,1.7-1.3s1.5-0.5,2.4-0.5c0.9,0,1.6,0.2,2.3,0.5c0.7,0.3,1.2,0.9,1.6,1.7
		c0.5-0.7,1.1-1.2,1.8-1.6c0.7-0.4,1.6-0.6,2.6-0.6c0.7,0,1.4,0.1,2,0.3c0.6,0.2,1.1,0.5,1.5,0.9c0.4,0.4,0.7,1,0.9,1.6
		c0.2,0.7,0.3,1.5,0.3,2.4v9.2h-3.2v-9.3c0-0.5-0.1-1-0.2-1.3c-0.1-0.3-0.3-0.6-0.5-0.8c-0.2-0.2-0.5-0.3-0.8-0.4
		c-0.3-0.1-0.7-0.1-1.1-0.1c-0.7,0-1.3,0.2-1.8,0.6c-0.5,0.4-0.8,0.9-1,1.5c0,0,0,0.1,0,0.1s0,0.1,0,0.1v9.5h-3.2v-9.2
		c0-0.5-0.1-0.9-0.2-1.3c-0.1-0.3-0.3-0.6-0.5-0.8c-0.2-0.2-0.5-0.4-0.8-0.5c-0.3-0.1-0.7-0.1-1.1-0.1c-0.7,0-1.3,0.1-1.7,0.4
		s-0.8,0.7-1,1.1v10.3h-3.2v-14.3H886.9z"/>
	<path d="M916,250.9c-0.1-0.2-0.2-0.4-0.2-0.6c-0.1-0.2-0.1-0.5-0.2-0.7c-0.2,0.2-0.4,0.4-0.7,0.6s-0.5,0.4-0.9,0.5
		c-0.3,0.1-0.7,0.3-1,0.3c-0.4,0.1-0.8,0.1-1.2,0.1c-0.7,0-1.4-0.1-2-0.3c-0.6-0.2-1.1-0.5-1.5-0.9c-0.4-0.4-0.8-0.8-1-1.4
		s-0.4-1.1-0.4-1.7c0-0.8,0.1-1.4,0.4-2s0.7-1.1,1.3-1.5s1.2-0.7,2-0.9c0.8-0.2,1.7-0.3,2.7-0.3h2v-0.9c0-0.7-0.2-1.3-0.6-1.8
		c-0.4-0.4-1-0.7-1.9-0.7c-0.4,0-0.7,0.1-1,0.2s-0.6,0.2-0.8,0.4c-0.2,0.2-0.4,0.4-0.5,0.6c-0.1,0.2-0.2,0.5-0.2,0.8h-3.2
		c0-0.6,0.1-1.1,0.4-1.6c0.3-0.5,0.7-1,1.2-1.4c0.5-0.4,1.1-0.7,1.9-1c0.7-0.2,1.5-0.4,2.4-0.4c0.8,0,1.5,0.1,2.2,0.3
		c0.7,0.2,1.3,0.5,1.8,0.9c0.5,0.4,0.9,0.9,1.1,1.5c0.3,0.6,0.4,1.3,0.4,2.1v6.3c0,1.3,0.2,2.3,0.5,3.1v0.2H916z M912.4,248.6
		c0.4,0,0.7,0,1-0.1c0.3-0.1,0.6-0.2,0.9-0.4c0.3-0.2,0.5-0.3,0.7-0.5c0.2-0.2,0.3-0.4,0.5-0.6v-2.7h-1.7c-1.2,0-2.1,0.2-2.7,0.6
		s-0.9,1-0.9,1.8c0,0.3,0,0.6,0.1,0.8s0.2,0.5,0.4,0.6c0.2,0.2,0.4,0.3,0.7,0.4C911.7,248.5,912.1,248.6,912.4,248.6z"/>
	<path d="M922,232.9c0-0.5,0.2-0.9,0.5-1.2c0.3-0.3,0.8-0.5,1.3-0.5s1,0.2,1.3,0.5s0.5,0.7,0.5,1.2c0,0.5-0.2,0.9-0.5,1.2
		s-0.8,0.5-1.3,0.5s-1-0.2-1.3-0.5C922.2,233.8,922,233.4,922,232.9z M925.4,250.9h-3.2v-14.3h3.2V250.9z"/>
	<path d="M932.3,250.9h-3.2v-20.2h3.2V250.9z"/>
	<path d="M936,249.3c0-0.5,0.2-0.9,0.5-1.3s0.8-0.5,1.4-0.5c0.6,0,1.1,0.2,1.4,0.5s0.5,0.8,0.5,1.3c0,0.5-0.2,0.9-0.5,1.2
		c-0.3,0.3-0.8,0.5-1.4,0.5c-0.3,0-0.6,0-0.8-0.1c-0.2-0.1-0.4-0.2-0.6-0.4s-0.3-0.3-0.4-0.6C936,249.8,936,249.6,936,249.3z"/>
	<path d="M949.2,248.6c0.4,0,0.7-0.1,1.1-0.2c0.3-0.1,0.6-0.3,0.9-0.5c0.2-0.2,0.5-0.5,0.6-0.8c0.2-0.3,0.2-0.6,0.3-1h3
		c0,0.7-0.2,1.3-0.5,1.9c-0.3,0.6-0.7,1.1-1.3,1.6c-0.5,0.5-1.1,0.8-1.8,1.1c-0.7,0.3-1.4,0.4-2.2,0.4c-1.1,0-2.1-0.2-2.9-0.6
		c-0.8-0.4-1.5-0.9-2-1.5c-0.5-0.7-0.9-1.4-1.2-2.3s-0.4-1.8-0.4-2.8v-0.5c0-1,0.1-1.9,0.4-2.8s0.7-1.6,1.2-2.3
		c0.5-0.7,1.2-1.2,2-1.5s1.8-0.6,2.9-0.6c0.9,0,1.6,0.1,2.4,0.4s1.3,0.6,1.8,1.1s0.9,1,1.2,1.7s0.4,1.4,0.5,2.2h-3
		c0-0.4-0.1-0.7-0.2-1.1c-0.1-0.3-0.3-0.6-0.6-0.9s-0.5-0.5-0.9-0.6s-0.7-0.2-1.2-0.2c-0.7,0-1.2,0.1-1.6,0.4c-0.4,0.3-0.8,0.6-1,1
		s-0.4,0.9-0.5,1.5c-0.1,0.6-0.1,1.1-0.1,1.7v0.5c0,0.6,0,1.1,0.1,1.7c0.1,0.5,0.3,1,0.5,1.5s0.6,0.8,1,1
		C948,248.5,948.6,248.6,949.2,248.6z"/>
	<path d="M956.9,243.6c0-1,0.2-2,0.5-2.9c0.3-0.9,0.7-1.7,1.3-2.3c0.6-0.7,1.3-1.2,2.1-1.5s1.7-0.6,2.8-0.6c1,0,2,0.2,2.8,0.6
		s1.5,0.9,2.1,1.5c0.6,0.7,1,1.4,1.3,2.3c0.3,0.9,0.4,1.8,0.4,2.9v0.3c0,1-0.1,2-0.4,2.9s-0.7,1.7-1.3,2.3c-0.6,0.6-1.3,1.2-2.1,1.5
		c-0.8,0.4-1.8,0.5-2.8,0.5c-1,0-2-0.2-2.8-0.5c-0.8-0.4-1.5-0.9-2.1-1.5c-0.6-0.6-1-1.4-1.3-2.3c-0.3-0.9-0.5-1.9-0.5-2.9V243.6z
		 M960.1,243.9c0,0.6,0.1,1.2,0.2,1.8s0.3,1.1,0.6,1.5c0.3,0.4,0.6,0.8,1.1,1c0.4,0.2,1,0.4,1.5,0.4c0.6,0,1.1-0.1,1.5-0.4
		c0.4-0.2,0.8-0.6,1.1-1c0.3-0.4,0.5-0.9,0.6-1.5s0.2-1.2,0.2-1.8v-0.3c0-0.6-0.1-1.2-0.2-1.8c-0.1-0.6-0.3-1.1-0.6-1.5
		c-0.3-0.4-0.6-0.8-1.1-1c-0.4-0.3-1-0.4-1.5-0.4s-1.1,0.1-1.5,0.4c-0.4,0.3-0.8,0.6-1.1,1c-0.3,0.4-0.5,0.9-0.6,1.5
		c-0.1,0.6-0.2,1.2-0.2,1.8V243.9z"/>
	<path d="M975.9,236.6l0.1,1.5c0.5-0.6,1.1-1,1.7-1.3s1.5-0.5,2.4-0.5c0.9,0,1.6,0.2,2.3,0.5c0.7,0.3,1.2,0.9,1.6,1.7
		c0.5-0.7,1.1-1.2,1.8-1.6c0.7-0.4,1.6-0.6,2.6-0.6c0.7,0,1.4,0.1,2,0.3c0.6,0.2,1.1,0.5,1.5,0.9c0.4,0.4,0.7,1,0.9,1.6
		c0.2,0.7,0.3,1.5,0.3,2.4v9.2h-3.2v-9.3c0-0.5-0.1-1-0.2-1.3c-0.1-0.3-0.3-0.6-0.5-0.8c-0.2-0.2-0.5-0.3-0.8-0.4
		c-0.3-0.1-0.7-0.1-1.1-0.1c-0.7,0-1.3,0.2-1.8,0.6c-0.5,0.4-0.8,0.9-1,1.5c0,0,0,0.1,0,0.1s0,0.1,0,0.1v9.5h-3.2v-9.2
		c0-0.5-0.1-0.9-0.2-1.3c-0.1-0.3-0.3-0.6-0.5-0.8c-0.2-0.2-0.5-0.4-0.8-0.5c-0.3-0.1-0.7-0.1-1.1-0.1c-0.7,0-1.3,0.1-1.7,0.4
		s-0.8,0.7-1,1.1v10.3h-3.2v-14.3H975.9z"/>
</g>
</svg>
