<?xml version="1.0" encoding="utf-8"?>
<!-- Generator: Adobe Illustrator 27.0.0, SVG Export Plug-In . SVG Version: 6.00 Build 0)  -->
<svg version="1.1" id="Layer_1" xmlns="http://www.w3.org/2000/svg" xmlns:xlink="http://www.w3.org/1999/xlink" x="0px" y="0px" width="2400px" height="1216px" viewBox="0 0 2400 1216" style="enable-background:new 0 0 2400 1216;" xml:space="preserve">
<style type="text/css">
	.st0{fill:#E7F2FB;}
	.st1{fill:#7A7A7A;}
	.st2{fill:#878787;}
	.st3{fill:#231F20;}
	.st4{fill:#363636;}
	.st5{fill:#856D6D;}
	.st6{fill:#7A6261;}
	.st7{fill:#624D4C;}
	.st8{fill:#F1B983;}
	.st9{fill:#8C8B85;}
	.st10{fill:#E9E6E8;}
	.st11{fill:#D3D3D3;}
	.st12{fill:#706B68;}
	.st13{fill:#EAEAEA;}
	.st14{fill:#C58C58;}
	.st15{fill:#68604D;}
	.st16{opacity:0.14;fill:#010101;}
	.st17{fill:#F5F3F4;}
	.st18{fill:#807C7A;}
	.st19{fill:#D79E66;}
	.st20{fill:#2B1210;}
	.st21{fill:#B03635;}
	.st22{fill:#FFFFFF;}
	.st23{fill:#29120C;}
	.st24{fill:#C38A58;}
	.st25{fill:#572621;}
	.st26{fill:#6F352D;}
	.st27{opacity:5.000000e-02;fill:#FFFFFF;}
	.st28{fill:#5C5546;}
	.st29{fill:#493736;}
	.st30{fill:#E2DCDC;}
	.st31{fill:#959595;}
	.st32{fill:#30302F;}
	.st33{fill:url(#SVGID_1_);}
	.st34{fill:#747373;}
	.st35{fill:#EAEAE8;}
	.st36{fill:#C1BFC0;}
	.st37{fill:#A89E8B;}
	.st38{fill:#443637;}
	.st39{fill:#4F250F;}
	.st40{fill:#C56728;}
	.st41{fill:#8E451F;}
	.st42{fill:#BC5727;}
</style>
<rect class="st0" width="2400" height="1216"/>
<g>
	<polygon class="st1" points="1458.7,1165.7 1473.1,1166 1311.5,756 1277,756.1 	"/>
	<g>
		<g>
			<g>
				<g>
					<polygon class="st1" points="1896.8,1132.7 1896.8,1049.3 1878.1,1049.3 1878.1,1132.7 1896.8,1132.7 					"/>
					<rect x="1879" y="1008.8" class="st2" width="13.9" height="49.6"/>
					<path class="st1" d="M1734.4,1159.2v-48.8c0-26.9,21.8-48.7,48.7-48.7l0,0H1987c26.9,0,48.7,21.8,48.8,48.7l0,0v48.8h0h18.7
						v-48.8c0-37.2-30.2-67.4-67.4-67.4l0,0h-203.9c-37.2,0-67.4,30.2-67.4,67.4l0,0l0,48.8H1734.4L1734.4,1159.2z"/>
					<path class="st3" d="M2032.8,1154.3c0,6.5,5.3,11.8,11.8,11.8l0,0c6.5,0,11.8-5.3,11.8-11.8v-15.4c0-6.5-5.3-11.8-11.8-11.8
						l0,0c-6.5,0-11.8,5.3-11.8,11.8V1154.3z"/>
					<path class="st3" d="M2044.6,1123.2c7.2,0,13.2,5.4,14,12.4c-0.8,7-6.8,12.4-14,12.4c-7.2,0-13.2-5.4-14-12.4
						C2031.4,1128.6,2037.4,1123.2,2044.6,1123.2z"/>
					<path class="st3" d="M1875.3,1154.3c0,6.5,5.3,11.8,11.8,11.8l0,0c6.5,0,11.8-5.3,11.8-11.8v-15.4c0-6.5-5.3-11.8-11.8-11.8
						l0,0c-6.5,0-11.8,5.3-11.8,11.8V1154.3z"/>
					<path class="st3" d="M1887.1,1123.2c7.2,0,13.2,5.4,14,12.4c-0.8,7-6.8,12.4-14,12.4c-7.2,0-13.2-5.4-14-12.4
						C1873.9,1128.6,1879.9,1123.2,1887.1,1123.2z"/>
					<path class="st3" d="M1713.5,1154.3c0,6.5,5.3,11.8,11.8,11.8l0,0c6.5,0,11.8-5.3,11.8-11.8v-15.4c0-6.5-5.3-11.8-11.8-11.8
						l0,0c-6.5,0-11.8,5.3-11.8,11.8V1154.3z"/>
					<path class="st3" d="M1725.3,1123.2c7.2,0,13.2,5.4,14,12.4c-0.8,7-6.8,12.4-14,12.4c-7.2,0-13.2-5.4-14-12.4
						C1712.1,1128.6,1718,1123.2,1725.3,1123.2z"/>
					<rect x="1872" y="920.3" class="st4" width="27.7" height="93.3"/>
					<path class="st5" d="M1738.8,888.7c0,16,13,29,29,29h283.1c16,0,29-13,29-29l60-474.1c0-16-13-29-29-29h-283.2
						c-16,0-29,13-29,29L1738.8,888.7z"/>
					<path class="st6" d="M2022.6,888.7l60-474.1c0-15.9,12.8-28.8,28.7-29c15.9,0.2,28.7,13.1,28.7,29l-60,474.1
						c0,15.9-12.8,28.8-28.7,29C2035.4,917.5,2022.6,904.6,2022.6,888.7z"/>
					<path class="st4" d="M1636.8,915.7c0,9.1,7.3,16.4,16.4,16.4h396c9.1,0,16.4-7.3,16.4-16.4l0,0c0-9.1-7.3-16.4-16.4-16.4h-396
						C1644.2,899.3,1636.8,906.7,1636.8,915.7L1636.8,915.7z"/>
					<path class="st6" d="M1883.3,887c0,15.8,12.8,28.7,28.7,28.7h141.4c15.8,0,28.7-12.8,28.7-28.7l0,0c0-15.8-12.8-28.7-28.7-28.7
						H1912C1896.2,858.3,1883.3,871.2,1883.3,887L1883.3,887z"/>
					<path class="st7" d="M1647.1,849.4l258.8,8.9c1,0,2.1,0.1,3.1,0.2c-14.4,1.5-25.6,13.7-25.6,28.5c0,14.8,11.2,27,25.6,28.5
						c-1,0.1-2,0.2-3.1,0.2h-258.8c-15.8,0-28.7-12.8-28.7-28.7C1618.4,871.2,1631.2,849.4,1647.1,849.4z"/>
				</g>
			</g>
		</g>
		<g>
			<g>
				<g>
					<g>
						<g>
							<g>
								<g>
									<path class="st8" d="M1775.1,200.1c-2-1.9-3.8-5.8-17.3,9.3l10.9-19.8c0,0-0.2,0-0.5-0.1l2.8-20.1l-31.2-24.4l-13.8,1.1
										l-1.5,7.6c0,0-1.2,0.4-2.6,1.6c-1.3,1.2-3.5,3.1-5.4,5.4c-2,2.3-5.2,0.1-7.1,1.2c-1.9,1-8.3,0.5-14.1,2.9
										c-1.5,0.6-3.3,4.9-4.8,9.3l-2.5-4.5c-4.2,12.6-25.4,46.5-25.4,46.5s1.7,2.5,3.8,5c6.7,8.3-0.7,13.3,7.6,20.8
										c4.3,3.9,12.4-0.6,19.5-0.2c11.3,0.6,23.2-0.5,34.5-4.4c11.7-4.1,20.9-10.8,29.5-19.6
										C1759.1,215.9,1776.4,201.3,1775.1,200.1z"/>
								</g>
							</g>
						</g>
						<g>
							<path class="st9" d="M1690.5,176c-3.8,2.5-4,7.1-1.7,10.6l26.1,39.4c2.3,3.5,7.4,6.3,11.2,3.8l80-53c3.8-2.5,4-8.8,1.7-12.3
								l-26.1-39.4c-2.3-3.5-7.4-4.6-11.2-2.1L1690.5,176z"/>
							
								<rect x="1709.3" y="146.1" transform="matrix(0.8337 -0.5523 0.5523 0.8337 193.9828 996.0026)" class="st10" width="82.3" height="59.7"/>
							<path class="st11" d="M1788.7,143.8c0.6-0.4,1.3-0.2,1.7,0.3l6.7,10.1c0.4,0.6,0.2,1.3-0.3,1.7l-0.6,0.4
								c-0.6,0.4-1.3,0.2-1.7-0.3l-6.7-10.1c-0.4-0.6-0.2-1.3,0.3-1.7L1788.7,143.8z"/>
						</g>
						<g>
							<path class="st8" d="M1710.8,185.7c4.9-1.6,3.5-7.1,3.5-7.1l-3.1-17l3.9,14.4c0,0,1.4,4.1,6.7,3c5.4-1,4.5-6.9,4.5-6.9
								l-1.8-17.6l1.1-5.4c0,0,1.5,5.5,6.8,6c5.3,0.5,7.2-6,7.2-6l0-1.4c0,0,0.5-8.2-6-8.4c-6.9-0.3-7.9,6.2-7.9,6.2l-1.5,8.4
								c0,0-1.6-4.3-6.8-3.5c-7.6,1.2-6.5,10.5-6.5,10.5s-2.7-4.3-7.6-2.9c-4.9,1.4-5.9,5.7-5.9,5.7l6,18
								C1703.4,181.7,1705.1,187.6,1710.8,185.7z"/>
							<path class="st8" d="M1687.4,170.2c0.9-2.7,2.4-6,4.5-7c2.4-1.2,5.6,0.5,5.6,0.5l4.7,21.5c0,0,1.5,5.6-3.8,6.4
								c-5.3,0.8-6.2-4-6.2-4l-4.1-15.8L1687.4,170.2z"/>
						</g>
					</g>
				</g>
				<path class="st12" d="M1483,353.4c-0.7-2.9-0.9-5.9-0.8-8.9c0.1-2.2,0.4-4.4,0.9-6.5c3.7-15,17.6-25.8,33.1-25.6l0.3,0
					c152.9-7.7,219.1-10.4,221.7-10.5l0.3,0c17,0.8,31.5,12.9,35.3,29.7c0.8,3.3,1.1,6.7,0.9,10.1c-0.1,2.5-0.5,5-1.1,7.4
					c-4.3,17.4-20.4,29.6-38.3,29l-221.2,1.4l-0.2,0C1499,378.7,1486.3,368,1483,353.4z"/>
				<path class="st12" d="M1689.8,244.8l-2.6,2.4c-85.2,78.9-141.7,119.3-151.1,125.1l-0.2,0.1l-0.2,0.1c-11.2,8.5-26.8,9-38.8,1.3
					c-2.9-1.9-5.6-4.2-7.8-6.9c-11.6-14.1-9.8-35.1,4-47l0.1-0.1l1-0.7l0.2-0.2c38-37.1,137.1-96.3,168.3-112.5l3.8-2L1689.8,244.8z
					"/>
			</g>
			<g>
				<g>
					<polygon class="st13" points="1884,256.1 1808.2,256.7 1807.6,265.1 1838.5,302.2 1852.3,300.1 1881.6,265.2 					"/>
					<g>
						<rect x="1813.6" y="219" class="st8" width="64.5" height="78"/>
						<path class="st14" d="M1878.2,251.2V219h-64.5v50.4C1823.6,270.7,1861.1,273.2,1878.2,251.2z"/>
					</g>
					<g>
						<g>
							<g>
								<path class="st15" d="M1952.5,679.3h-234.3l0.9,82.9c0.6,30.1,25.5,55.9,55.5,57l128.1,41.8c61.7-6.4,49.7-68.7,49.7-99.6
									C1952.5,759.7,1952.5,679.3,1952.5,679.3z"/>
							</g>
						</g>
					</g>
					<path class="st16" d="M1822.1,743.4l8.9-27.2l16.9,32.7c0,0,2.5,11.4,22.7,12.7c12,0.8,51.5,0.7,81.8,0.4c0-0.2,0-0.4,0-0.7
						c0-1.7,0-82.1,0-82.1h-234.3l0.9,82.4h82.8C1801.9,761.6,1817.4,758.3,1822.1,743.4z"/>
					<path class="st12" d="M1991.5,382.4c-3.6,30-25.7,84.4-32.3,140.2c-5.3,44.7,4.2,97.6,5.3,130.4c2.7,49.4,6.1,57.8,2.4,92.2
						c-0.4,4.2-42.1,7.5-97.9,3.8c-17.4-5.6-27.8-28.5-36.7-46.3c0-0.1-0.1-0.1-0.1-0.2c-0.8-1.6-1.5-3.1-2.3-4.5
						c-0.8,1.5-1.5,3-2.3,4.6c0,0.1-0.1,0.2-0.1,0.2c-8.9,17.9-13.7,40.8-28.2,46.3c-55.8,3.7-88.9,0.3-89.4-3.8
						c-3.2-29.4,2.1-87,2.4-92.2c1.1-32.6,8.4-85.2,3.2-129.8c-0.8-7-1.8-14.4-3-22.4c-8-54-11.7-94.1-13.3-123.1
						c-26.1-17.1-25.7-29.5-25.7-29.5c2.3-27.5,26.4-35.6,26.4-35.6c22.9-10.7,81-24.3,103.9-27.9c0,0,9.9,13.9,22.8,39.2l61.5-39.2
						c50.5,11,111.8,28.1,111.8,28.1s23.3,4.1,30.6,30.4C2030.6,343.2,2037.7,363,1991.5,382.4z"/>
					<polygon class="st17" points="1793.7,285.8 1784.3,288.2 1831.1,499.6 1904.7,287.5 1892.6,283.7 1839.7,297 					"/>
					<polygon class="st16" points="1869.8,329.6 1900.9,286.3 1892.8,283.7 1839.7,297 1794.9,285.5 1789.9,286.8 1815.3,331.2 
						1839.7,302.7 					"/>
					<path class="st18" d="M1789.1,286.8c0,0,20.3,102.2,42.5,208.9l69.4-209.6l35.6,9.6l-7.7,92.6l-27.9,1.6l21.6,28.6l-90.8,112.1
						L1763.5,424l25-25.5l-31.3-4.6l-7.1-97.8L1789.1,286.8z"/>
					<g>
						<polygon class="st17" points="1898.1,285.3 1884,256.1 1839.7,297 1866.2,321.3 						"/>
						<polygon class="st17" points="1839.7,297 1818,322.6 1792.9,286 1808.2,256.7 						"/>
					</g>
					<g>
						<circle class="st18" cx="1852.3" cy="550" r="9.9"/>
						<circle class="st18" cx="1852.3" cy="595.9" r="9.9"/>
						<circle class="st18" cx="1852.3" cy="641.8" r="9.9"/>
					</g>
					<path class="st18" d="M1834.5,524.9l-2.3,177.5c-0.8-1.6-1.5-3.1-2.3-4.5c-0.8,1.5-1.5,3-2.3,4.6c0,0.1-0.1,0.2-0.1,0.2
						l2.3-177.7H1834.5z"/>
				</g>
				<g>
					<g>
						<path class="st8" d="M1906.9,130.8v60.1c0,37.4-30.7,67.8-68.6,67.8c-18.9,0-36.1-7.6-48.5-19.8
							c-12.4-12.3-20.1-29.2-20.1-47.9v-60.1c0-36.9,29.8-66.8,66.8-67.7c0.3,0,0.6,0,0.9,0h0.9c0.9,0,1.8,0,2.8,0.1
							c0.8,0,1.7,0.1,2.5,0.1c0.6,0,1.2,0.1,1.7,0.1c0.5,0,1,0.1,1.5,0.2c15.5,1.9,29.5,8.9,40,19.3c9.3,9.1,15.9,20.9,18.6,34.1
							C1906.4,121.4,1906.9,126,1906.9,130.8z"/>
						<path class="st19" d="M1905.4,116.9c-2.8-13.2-9.4-24.9-18.6-34.1c-10.5-10.4-24.5-17.4-40-19.3c-0.5-0.1-1-0.1-1.5-0.2
							c-0.6,0-1.1-0.1-1.7-0.1c-0.8-0.1-1.7-0.1-2.5-0.1c-0.9,0-1.8-0.1-2.8-0.1h-0.9c-0.3,0-0.6,0-0.9,0
							c-36.3,0.9-65.5,29.6-66.8,65.4c2.3-0.8,4.7-2.3,6.4-5.2c4.4-7.6,10.2-17.7,20.2-13.8c9.9,3.9,37.1,17.7,65.8,1.5
							s32.3,7.9,32.3,7.9s4.6,9.2,12.5,13.4v-1.6C1906.9,126,1906.4,121.4,1905.4,116.9z"/>
						<path class="st19" d="M1898.3,97.9c4.1,8.7,6.4,18.3,6.4,28.5v60.1c0,37.4-30.7,67.8-68.6,67.8c-25.8,0-48.3-14.1-60-34.9
							c10.9,23.2,34.6,39.3,62.2,39.3c37.9,0,68.6-30.3,68.6-67.8v-60.1C1906.9,118.9,1903.8,107.7,1898.3,97.9z"/>
					</g>
					<g>
						<path class="st8" d="M1911.5,152.8c0,0-8.3,1.8-11.2,25.2c-2.9,23.3,2.9,25.3,4.7,26.1c0,0,21.1,5.9,28.5-29.1
							C1939.6,145.9,1911.5,152.8,1911.5,152.8z"/>
						<path class="st19" d="M1905.7,188c0,0,15.4-7.7,3.4-15.5c0,0,4-17.6,14.4-13.7c10.3,4,2,20.5,0,23.9
							C1919.1,190,1905.7,198.8,1905.7,188z"/>
					</g>
					<g>
						<path class="st20" d="M1802.5,169.7c0,4.7-3,7-6.8,7s-6.8-2.2-6.8-7c0-4.7,3-8.6,6.8-8.6S1802.5,165,1802.5,169.7z"/>
						<path class="st20" d="M1873.8,169.7c0,4.7-3,7-6.8,7c-3.8,0-6.8-2.2-6.8-7c0-4.7,3-8.6,6.8-8.6
							C1870.8,161.1,1873.8,165,1873.8,169.7z"/>
						<g>
							<path class="st21" d="M1812.5,215.4h40.8c0,0,4-0.1,1.1,6.1c-1.8,3.9-6.8,12.1-20.8,12.5c-16.7,0.4-22.5-12.8-22.5-12.8
								S1808.3,215.4,1812.5,215.4z"/>
							<path class="st22" d="M1855.1,219.7c1.4-4.5-1.8-4.4-1.8-4.4h-40.8c-3.1,0-2.3,3.2-1.7,4.8
								C1818.6,222.2,1834.6,224.8,1855.1,219.7z"/>
						</g>
						<g>
							<path class="st23" d="M1878.2,153.1c-0.2,0-0.5,0-0.7-0.1c-3.1-1-6.3-1.5-9.5-1.5c-3.2,0-6.4,0.5-9.5,1.5
								c-0.2,0.1-0.4,0.1-0.7,0.1c-1,0-1.8-0.6-2.1-1.5c-0.4-1.1,0.3-2.4,1.4-2.7c3.5-1.1,7.1-1.7,10.8-1.7c3.7,0,7.3,0.6,10.8,1.7
								c0.6,0.2,1,0.6,1.3,1.1c0.3,0.5,0.3,1.1,0.1,1.6C1880,152.5,1879.1,153.1,1878.2,153.1L1878.2,153.1z"/>
						</g>
						<g>
							<path class="st23" d="M1805.5,153.1c-0.2,0-0.5,0-0.7-0.1c-3.1-1-6.2-1.5-9.5-1.5c-3.2,0-6.4,0.5-9.5,1.5
								c-0.2,0.1-0.4,0.1-0.7,0.1c-0.9,0-1.8-0.6-2.1-1.5c-0.2-0.6-0.1-1.1,0.1-1.7c0.3-0.5,0.7-0.9,1.3-1.1
								c3.5-1.1,7.1-1.7,10.8-1.7c3.7,0,7.3,0.6,10.8,1.7c1.1,0.4,1.8,1.6,1.4,2.7C1807.3,152.5,1806.4,153.1,1805.5,153.1
								L1805.5,153.1z"/>
						</g>
						<g>
							<g>
								<g>
									<path class="st24" d="M1832.7,199.2c-14,5.7-21.5-0.9-22.1-7.5c-0.4-4.3,2.1-8.1,6.2-9.8c8.5-3.3,14.5-16.4,14.6-16.6l0,0
										c0,3-3,14.3-13.8,20.6c-2.3,1.4-3.8,2.8-3.6,4.9C1814.3,194.6,1819.7,200.2,1832.7,199.2L1832.7,199.2z"/>
								</g>
							</g>
						</g>
					</g>
					<g>
						<path class="st25" d="M1762.9,106.7c1.3-19.7,20.7-22.5,16.8-13.7c-6.4,14.4-10.1,78.6-10.1,78.6s-1.3-17.1-2.8-26.6
							C1766.6,144.3,1762.3,116.1,1762.9,106.7z"/>
						<path class="st25" d="M1916.2,106.8c-1.3-19.7-34.6-20.7-28.2-13.4c14.4,16.5,11.8,78.1,11.8,78.1s2.9-14.1,11.2-18.5
							C1911.6,152.8,1916.9,116.2,1916.2,106.8z"/>
						<path class="st26" d="M1762.8,120.2c1,2.7,1.5,5.6,7.2,5.2c4.6-0.3,2.9-4.8,6.4-9.8c5.1-7.3,9.4-13.8,23-9.1
							c14.6,5,36.4,14,59.4-0.4c23.1-14.5,36.2,3.3,36.2,3.3s5.4,7.8,18.6,13.3c1.4,0.6,2.9-0.9,3.1-2.4l1.5-15.6
							c0,0,0-19.1-16.7-17.3c0,0,5.3-30.1-23-42.7c-28.8-12.9-46.8-11-70-5.2c0,0-24.5-1.3-20.8,3.9c3.6,5.2,2.7,3.4,2.7,3.4
							s-10.6,0.9-17.3,4.5c-3.6,1.9-11.3,9.2-1.9,12c0,0-13.9,2-10.8,8.5c0.8,1.7,3.8,3.7,2.7,6.4
							C1758.3,89.7,1754.6,98.6,1762.8,120.2z"/>
						<path class="st25" d="M1901.2,88.6c0,0-0.3,13.5-9.9,14.7C1891.3,103.2,1900.1,95.6,1901.2,88.6z"/>
						<path class="st27" d="M1768.5,76.3c0,0,18.8-1.6,28.6,25.8c0,0,10.9-0.4,14.4,2.5C1811.5,104.5,1796.7,64.4,1768.5,76.3z"/>
						<path class="st27" d="M1814,104.8c0,0-15.8-34.4-35.1-36.9c0,0,27.9-7.3,44.6,31.6l2.8,8.1
							C1826.3,107.6,1820.5,104.4,1814,104.8z"/>
					</g>
				</g>
			</g>
			<g>
				<path class="st16" d="M2009.5,374c-4.6,2.7-10,5.5-16.5,8.2c-3.6,30-25.7,84.4-32.3,140.2c-1.6,13.3-1.8,27.3-1.4,41.4
					l-206.2,4.8c0,0,59.3-26.8,164.5-38.2l37.8-170.1L2009.5,374z"/>
				<g>
					<g>
						<path class="st8" d="M1762.1,588.2c0-14.1-16.8-16.5-16.8-16.5l-45.8-9.2c-5.1-0.8-5.3,2-7.3,0.7c-4.2-2.5-5.5,0.9-7.5,0.2
							c-4.6-1.7-5,0.8-6.3,0.4c-4.4-1.2-6.1-1.5-12.4,2.5c-1.9,1.2-17.2,12.5-21,15.6c-7.9,6.4-13.1,8.9-13.4,9.6
							c-0.3,0.8,0.7,11.3,20.7-2c5.1-3.4,10.1-6.8,18.6-10.7c-2.4,4.3-7.5,11.5-11.2,18c-5.8,9.9-9.5,13.1-9.1,15.3
							c0.2,0.8,7,5.7,17.1-10c1.8-2.8,4.1-5.9,5.9-8.3c-1.3,3.7-2,5.2-2.8,7.5c-2.8,8.2-8.3,14.2-7.3,15.9c0.6,1,8.5,4.6,15.2-10.1
							c1.8-4,3.6-7.9,4.8-10.3c-0.6,3.6-1,4.5-1.2,6.6c-1,9.2-2.7,13.1-2.1,13.9c0.9,1.2,7.6,1.8,10.5-11.9
							c0.9-4.5,2.7-11.6,4.6-17.2c0,0,13.7,12.3,13.2,16.8c-0.5,4-7,8.3-14.6,13.6c-8.6,6-12.8,15.2-6.2,21c1.6,1.4,3.7-5,13.4-9.8
							c8-4,15.3-7.7,19.8-8.7c24.1-5.3,22.7-10.7,28-13C1748.7,608,1762.1,608.5,1762.1,588.2z"/>
						<path class="st19" d="M1701.4,577.6c0,0,0,3.6-1.2,5.8c0,0,7.5,2.1,12.3-2.8c0,0-3.9,4.9-1.9,7.6c1.9,2.7,9.6,11.7,24.1,12.4
							c0,0-16.5,4.2-18.8,10.7c0,0-24.3,8.9-31.4,19.2c0.9-4.2,4.4-8.6,9.2-11.9c7.6-5.3,14.2-9.6,14.6-13.6
							c0.5-4.5-13.2-16.8-13.2-16.8S1700.7,581.9,1701.4,577.6z"/>
						<path class="st19" d="M1683.4,596.8c0,0,5-19.1,4.1-21.6C1686.6,572.7,1683.4,596.8,1683.4,596.8z"/>
						<path class="st19" d="M1673.5,593.8c0,0,7.1-15.3,7.1-18.3C1680.6,572.6,1673.5,593.8,1673.5,593.8z"/>
						<path class="st19" d="M1670.8,578.8c0,0,4.9-6.5,4.2-7.3c-0.7-0.8-18.3,15.1-18.3,15.1S1664.7,581.2,1670.8,578.8z"/>
					</g>
					<g>
						<g>
							<g>
								<path class="st12" d="M1940.1,598.6c-13.9-6.8-21.5-22.6-18.1-37.8l0.1-0.3c24.7-151.1,35.9-216.3,36.5-218.9l0.1-0.2
									c5.3-20.2,26.2-32.4,46.5-27.1c2.4,0.6,4.8,1.5,7,2.6c16.1,7.8,24.7,26.2,20.3,43.6l-45.2,216.6l0,0.2
									c-4.9,17.6-23.3,28.2-41,23.6C1944.2,600.3,1942.1,599.6,1940.1,598.6z"/>
							</g>
							<g>
								<path class="st12" d="M1753,568.6l3.5-0.8c113.4-25.1,182.5-31.5,193.6-31.8l0.2,0l0.2,0c17.7-2.1,34.5,10.6,37.4,28.4
									c2.9,18-9.2,35.3-27.2,38.5l-0.2,0l-0.4,0l-0.8,0.1l-0.3,0.1c-51.5,12.8-166.9,14-202.1,12.3l-4.3-0.2L1753,568.6z"/>
							</g>
						</g>
					</g>
				</g>
			</g>
			<g>
				<path class="st28" d="M1531.2,814.9c0.3-23.2,18.5-47.3,48.5-47.6c7.7-0.2,316.8-9.4,318.7-9.4c28.5,0.3,51.4,23.8,51.1,52.3
					c-0.3,28.5-23.8,51.4-52.2,51.1l-316.7,2.4c-13.1,0.3-25.4-4.5-34.7-13.7C1536.4,840.7,1531,827.9,1531.2,814.9z"/>
				<g>
					
						<rect x="1388.9" y="881.5" transform="matrix(0.7367 -0.6762 0.6762 0.7367 -241.0313 1197.6841)" class="st8" width="57.3" height="53.7"/>
					<path class="st15" d="M1403.8,906.5c-8.1-8.8-14-18.3-17.6-28l-1.9-5.3l3.9-4c16.6-16.9,162.5-171.1,172.2-179.6
						c19.6-17.9,50.1-16.6,68.1,3c15.7,17.1,18.9,47.2-2.8,68l-180.3,176.3l-5.7-3.1C1425.3,926,1413.3,916.9,1403.8,906.5
						C1403.8,906.5,1403.8,906.5,1403.8,906.5z"/>
					<path class="st15" d="M1547.1,711.3c6.8-22.2,31-40.3,59.9-32.1c7.5,1.9,306.7,79.9,308.5,80.4c27.3,8.3,42.7,37.3,34.4,64.6
						c-8.3,27.2-37.2,42.6-64.5,34.4L1580.7,772c-12.7-3.4-23.1-11.5-29.5-22.9C1544.8,737.5,1543.3,723.8,1547.1,711.3z"/>
				</g>
				
					<rect x="1566.3" y="1052.8" transform="matrix(0.9978 -6.579666e-02 6.579666e-02 0.9978 -67.7066 107.1685)" class="st8" width="53.7" height="57.3"/>
				<path class="st28" d="M1583.4,1077.4c-12-0.1-22.9-2.2-32.5-6.2l-5.2-2.2l-0.3-5.6c-1.1-23.7-14.6-235.5-14.3-248.4
					c0.2-26.5,22-48,48.5-47.8c23.2,0.2,47.5,18.3,47.9,48.3l6.3,252.1l-6.1,2.1C1612.4,1074.9,1597.5,1077.5,1583.4,1077.4
					C1583.4,1077.4,1583.4,1077.4,1583.4,1077.4z"/>
				<g>
					<path class="st8" d="M1561.5,1098.9c0,0,6.8-10.4,33.3-10.4c26.4,0,29.1,10.9,29.1,10.9v12.9h-62.1L1561.5,1098.9z"/>
					<g>
						<rect x="1459.3" y="1152.6" class="st29" width="177.9" height="13.4"/>
						<path class="st7" d="M1460.1,1152.6c0,0-8.3-32,50.8-27.1l50.2-35.4c0,0,4-3.4,7.6,0c3.7,3.4,16.9,16,33,13.8
							c16.1-2.1,16.5-12,22.2-11.2c5.7,0.8,15,26.3,13.4,59.9H1460.1z"/>
					</g>
				</g>
				<g>
					<path class="st8" d="M1373.6,902.9c0,0,12.1-2.9,31.4,15.1c19.3,18,13.8,27.8,13.8,27.8l-8.8,9.4l-45.4-42.3L1373.6,902.9z"/>
					<g>
						
							<rect x="1316" y="849.2" transform="matrix(0.6817 -0.7317 0.7317 0.6817 -265.3281 1266.4052)" class="st29" width="13.4" height="177.9"/>
						<path class="st7" d="M1262.8,873.1c0,0,15.8-29.1,55.7,14.8l60.9,8.3c0,0,5.2,0.2,5.6,5.2c0.4,5,1.5,23.2,14.7,32.6
							c13.2,9.4,20.2,2.5,23.8,6.9c3.6,4.4-7,29.5-31,53L1262.8,873.1z"/>
					</g>
				</g>
			</g>
		</g>
	</g>
	<g>
		<g>
			<rect x="1323.1" y="587.7" class="st30" width="322.6" height="15.7"/>
		</g>
		<g>
			<path class="st31" d="M1601.9,240.2c0-11.4-9.2-20.6-20.6-20.6h10.9c11.4,0,20.6,9.2,20.6,20.6v247h-10.9V240.2z"/>
			<path class="st32" d="M1592.2,555.9h-10.9c11.4,0,20.6-9.2,20.6-20.6v-48.1h10.9v48.1C1612.8,546.7,1603.6,555.9,1592.2,555.9z"/>
			<g>
				<path class="st11" d="M1028.3,535.3c0,11.4,9.2,20.6,20.6,20.6h532c11.4,0,20.6-9.2,20.6-20.6V240.2c0-11.4-9.2-20.6-20.6-20.6
					h-532c-11.4,0-20.6,9.2-20.6,20.6V535.3z"/>
				
					<radialGradient id="SVGID_1_" cx="1703.433" cy="320.3484" r="42.6854" gradientTransform="matrix(-1 0 0 1 3018.4004 0)" gradientUnits="userSpaceOnUse">
					<stop offset="0.7204" style="stop-color:#FFFFFF"/>
					<stop offset="1" style="stop-color:#C8C8C8"/>
				</radialGradient>
				<path class="st33" d="M1272.3,320.4c0,23.6,19.1,42.7,42.7,42.7c23.6,0,42.7-19.1,42.7-42.7c0-23.6-19.1-42.7-42.7-42.7
					C1291.4,277.7,1272.3,296.8,1272.3,320.4z"/>
				<polygon class="st31" points="1318.3,602.1 1340.1,423.4 1283.2,423.4 1199.5,602.1 				"/>
				<polygon class="st34" points="1340.1,423.4 1348,423.4 1325.6,602.1 1318.3,602.1 				"/>
				<rect x="1207.4" y="590.4" class="st31" width="226" height="11.7"/>
			</g>
		</g>
		<g>
			<g>
				<g>
					<rect x="2043.8" y="561.2" class="st12" width="163.9" height="42.3"/>
					<rect x="1942.8" y="599.9" class="st12" width="101" height="3.6"/>
					<rect x="1942.8" y="561.2" class="st12" width="101" height="3.6"/>
					<rect x="1949.5" y="564.8" class="st35" width="94.3" height="35.1"/>
					<rect x="2101.1" y="572" class="st35" width="98.9" height="17.6"/>
				</g>
				<g>
					<rect x="2062.5" y="518.9" class="st36" width="163.8" height="42.3"/>
					<rect x="1961.5" y="557.6" class="st36" width="101" height="3.6"/>
					<rect x="1961.5" y="518.9" class="st36" width="101" height="3.6"/>
					<rect x="1968.1" y="522.5" class="st35" width="94.3" height="35.1"/>
					<rect x="2119.8" y="529.7" class="st35" width="98.9" height="17.6"/>
				</g>
				<g>
					<rect x="2023.3" y="476.6" class="st37" width="163.9" height="42.3"/>
					<rect x="1922.3" y="515.3" class="st37" width="101" height="3.6"/>
					<rect x="1922.3" y="476.6" class="st37" width="101" height="3.6"/>
					<rect x="1929" y="480.2" class="st35" width="94.3" height="35.1"/>
					<rect x="2080.6" y="487.4" class="st35" width="98.9" height="17.6"/>
				</g>
			</g>
		</g>
		<g>
			<g>
				<path class="st38" d="M1929.2,597.5h8.2c17.1,0,31-16.3,31-36.3c0-20-13.9-36.3-31-36.3h-8.2v10h8.2c11.6,0,21,11.8,21,26.3
					c0,14.5-9.4,26.2-21,26.2h-8.2V597.5z"/>
			</g>
			<rect x="1875.2" y="521.2" class="st7" width="62.8" height="80.8"/>
		</g>
		<g>
			<polygon class="st1" points="2336.9,1165.7 2351.2,1166 2189.6,756 2155.2,756.1 			"/>
			<polygon class="st4" points="1763.1,1165.7 1748.8,1166 1910.4,756 1944.8,756.1 			"/>
			<polygon class="st4" points="947.3,1165.7 932.9,1166 1094.6,756 1129,756.1 			"/>
			<rect x="1853.2" y="612.8" class="st39" width="379.4" height="100.9"/>
			<rect x="1041.6" y="613.1" class="st40" width="811.6" height="100.5"/>
			<rect x="1911" y="725.8" class="st4" width="278.9" height="31.3"/>
			<rect x="1094.4" y="725.8" class="st4" width="816.6" height="31.3"/>
			<rect x="1852.3" y="601.9" class="st41" width="399.5" height="13.2"/>
			<rect x="1016" y="601.9" class="st42" width="836.9" height="13.2"/>
			<rect x="1852.3" y="713" class="st41" width="399.5" height="13.2"/>
			<rect x="1016" y="713" class="st42" width="836.9" height="13.2"/>
		</g>
	</g>
</g>
</svg>
